<?xml version="1.0" encoding="utf-8" standalone="no"?>
<!DOCTYPE svg PUBLIC "-//W3C//DTD SVG 1.1//EN"
  "http://www.w3.org/Graphics/SVG/1.1/DTD/svg11.dtd">
<!-- Created with matplotlib (https://matplotlib.org/) -->
<svg height="345.6pt" version="1.1" viewBox="0 0 460.8 345.6" width="460.8pt" xmlns="http://www.w3.org/2000/svg" xmlns:xlink="http://www.w3.org/1999/xlink">
 <defs>
  <style type="text/css">
*{stroke-linecap:butt;stroke-linejoin:round;}
  </style>
 </defs>
 <g id="figure_1">
  <g id="patch_1">
   <path d="M 0 345.6 
L 460.8 345.6 
L 460.8 0 
L 0 0 
z
" style="fill:#ffffff;"/>
  </g>
  <g id="axes_1">
   <g id="patch_2">
    <path d="M 57.6 307.584 
L 414.72 307.584 
L 414.72 41.472 
L 57.6 41.472 
z
" style="fill:#ffffff;"/>
   </g>
   <g id="patch_3">
    <path clip-path="url(#p7e9df1920b)" d="M 73.832727 53562.863247 
L 75.100909 53562.863247 
L 75.100909 53.568 
L 73.832727 53.568 
z
" style="fill:#1f77b4;"/>
   </g>
   <g id="patch_4">
    <path clip-path="url(#p7e9df1920b)" d="M 75.100909 53562.863247 
L 76.369091 53562.863247 
L 76.369091 64.007774 
L 75.100909 64.007774 
z
" style="fill:#1f77b4;"/>
   </g>
   <g id="patch_5">
    <path clip-path="url(#p7e9df1920b)" d="M 76.369091 53562.863247 
L 77.637273 53562.863247 
L 77.637273 62.99283 
L 76.369091 62.99283 
z
" style="fill:#1f77b4;"/>
   </g>
   <g id="patch_6">
    <path clip-path="url(#p7e9df1920b)" d="M 77.637273 53562.863247 
L 78.905455 53562.863247 
L 78.905455 82.236461 
L 77.637273 82.236461 
z
" style="fill:#1f77b4;"/>
   </g>
   <g id="patch_7">
    <path clip-path="url(#p7e9df1920b)" d="M 78.905455 53562.863247 
L 80.173636 53562.863247 
L 80.173636 87.324699 
L 78.905455 87.324699 
z
" style="fill:#1f77b4;"/>
   </g>
   <g id="patch_8">
    <path clip-path="url(#p7e9df1920b)" d="M 80.173636 53562.863247 
L 81.441818 53562.863247 
L 81.441818 104.936645 
L 80.173636 104.936645 
z
" style="fill:#1f77b4;"/>
   </g>
   <g id="patch_9">
    <path clip-path="url(#p7e9df1920b)" d="M 81.441818 53562.863247 
L 82.71 53562.863247 
L 82.71 109.86575 
L 81.441818 109.86575 
z
" style="fill:#1f77b4;"/>
   </g>
   <g id="patch_10">
    <path clip-path="url(#p7e9df1920b)" d="M 82.71 53562.863247 
L 83.978182 53562.863247 
L 83.978182 127.968208 
L 82.71 127.968208 
z
" style="fill:#1f77b4;"/>
   </g>
   <g id="patch_11">
    <path clip-path="url(#p7e9df1920b)" d="M 83.978182 53562.863247 
L 85.246364 53562.863247 
L 85.246364 126.632116 
L 83.978182 126.632116 
z
" style="fill:#1f77b4;"/>
   </g>
   <g id="patch_12">
    <path clip-path="url(#p7e9df1920b)" d="M 85.246364 53562.863247 
L 86.514545 53562.863247 
L 86.514545 143.674209 
L 85.246364 143.674209 
z
" style="fill:#1f77b4;"/>
   </g>
   <g id="patch_13">
    <path clip-path="url(#p7e9df1920b)" d="M 86.514545 53562.863247 
L 87.782727 53562.863247 
L 87.782727 139.500039 
L 86.514545 139.500039 
z
" style="fill:#1f77b4;"/>
   </g>
   <g id="patch_14">
    <path clip-path="url(#p7e9df1920b)" d="M 87.782727 53562.863247 
L 89.050909 53562.863247 
L 89.050909 153.499497 
L 87.782727 153.499497 
z
" style="fill:#1f77b4;"/>
   </g>
   <g id="patch_15">
    <path clip-path="url(#p7e9df1920b)" d="M 89.050909 53562.863247 
L 90.319091 53562.863247 
L 90.319091 158.624196 
L 89.050909 158.624196 
z
" style="fill:#1f77b4;"/>
   </g>
   <g id="patch_16">
    <path clip-path="url(#p7e9df1920b)" d="M 90.319091 53562.863247 
L 91.587273 53562.863247 
L 91.587273 152.713562 
L 90.319091 152.713562 
z
" style="fill:#1f77b4;"/>
   </g>
   <g id="patch_17">
    <path clip-path="url(#p7e9df1920b)" d="M 91.587273 53562.863247 
L 92.855455 53562.863247 
L 92.855455 169.089206 
L 91.587273 169.089206 
z
" style="fill:#1f77b4;"/>
   </g>
   <g id="patch_18">
    <path clip-path="url(#p7e9df1920b)" d="M 92.855455 53562.863247 
L 94.123636 53562.863247 
L 94.123636 158.069699 
L 92.855455 158.069699 
z
" style="fill:#1f77b4;"/>
   </g>
   <g id="patch_19">
    <path clip-path="url(#p7e9df1920b)" d="M 94.123636 53562.863247 
L 95.391818 53562.863247 
L 95.391818 178.81478 
L 94.123636 178.81478 
z
" style="fill:#1f77b4;"/>
   </g>
   <g id="patch_20">
    <path clip-path="url(#p7e9df1920b)" d="M 95.391818 53562.863247 
L 96.66 53562.863247 
L 96.66 169.785758 
L 95.391818 169.785758 
z
" style="fill:#1f77b4;"/>
   </g>
   <g id="patch_21">
    <path clip-path="url(#p7e9df1920b)" d="M 96.66 53562.863247 
L 97.928182 53562.863247 
L 97.928182 179.883855 
L 96.66 179.883855 
z
" style="fill:#1f77b4;"/>
   </g>
   <g id="patch_22">
    <path clip-path="url(#p7e9df1920b)" d="M 97.928182 53562.863247 
L 99.196364 53562.863247 
L 99.196364 171.245125 
L 97.928182 171.245125 
z
" style="fill:#1f77b4;"/>
   </g>
   <g id="patch_23">
    <path clip-path="url(#p7e9df1920b)" d="M 99.196364 53562.863247 
L 100.464545 53562.863247 
L 100.464545 184.929061 
L 99.196364 184.929061 
z
" style="fill:#1f77b4;"/>
   </g>
   <g id="patch_24">
    <path clip-path="url(#p7e9df1920b)" d="M 100.464545 53562.863247 
L 101.732727 53562.863247 
L 101.732727 175.227388 
L 100.464545 175.227388 
z
" style="fill:#1f77b4;"/>
   </g>
   <g id="patch_25">
    <path clip-path="url(#p7e9df1920b)" d="M 101.732727 53562.863247 
L 103.000909 53562.863247 
L 103.000909 189.185751 
L 101.732727 189.185751 
z
" style="fill:#1f77b4;"/>
   </g>
   <g id="patch_26">
    <path clip-path="url(#p7e9df1920b)" d="M 103.000909 53562.863247 
L 104.269091 53562.863247 
L 104.269091 181.502258 
L 103.000909 181.502258 
z
" style="fill:#1f77b4;"/>
   </g>
   <g id="patch_27">
    <path clip-path="url(#p7e9df1920b)" d="M 104.269091 53562.863247 
L 105.537273 53562.863247 
L 105.537273 195.301997 
L 104.269091 195.301997 
z
" style="fill:#1f77b4;"/>
   </g>
   <g id="patch_28">
    <path clip-path="url(#p7e9df1920b)" d="M 105.537273 53562.863247 
L 106.805455 53562.863247 
L 106.805455 197.87506 
L 105.537273 197.87506 
z
" style="fill:#1f77b4;"/>
   </g>
   <g id="patch_29">
    <path clip-path="url(#p7e9df1920b)" d="M 106.805455 53562.863247 
L 108.073636 53562.863247 
L 108.073636 191.135007 
L 106.805455 191.135007 
z
" style="fill:#1f77b4;"/>
   </g>
   <g id="patch_30">
    <path clip-path="url(#p7e9df1920b)" d="M 108.073636 53562.863247 
L 109.341818 53562.863247 
L 109.341818 211.95401 
L 108.073636 211.95401 
z
" style="fill:#1f77b4;"/>
   </g>
   <g id="patch_31">
    <path clip-path="url(#p7e9df1920b)" d="M 109.341818 53562.863247 
L 110.61 53562.863247 
L 110.61 212.587851 
L 109.341818 212.587851 
z
" style="fill:#1f77b4;"/>
   </g>
   <g id="patch_32">
    <path clip-path="url(#p7e9df1920b)" d="M 110.61 53562.863247 
L 111.878182 53562.863247 
L 111.878182 220.116084 
L 110.61 220.116084 
z
" style="fill:#1f77b4;"/>
   </g>
   <g id="patch_33">
    <path clip-path="url(#p7e9df1920b)" d="M 111.878182 53562.863247 
L 113.146364 53562.863247 
L 113.146364 214.600748 
L 111.878182 214.600748 
z
" style="fill:#1f77b4;"/>
   </g>
   <g id="patch_34">
    <path clip-path="url(#p7e9df1920b)" d="M 113.146364 53562.863247 
L 114.414545 53562.863247 
L 114.414545 221.023405 
L 113.146364 221.023405 
z
" style="fill:#1f77b4;"/>
   </g>
   <g id="patch_35">
    <path clip-path="url(#p7e9df1920b)" d="M 114.414545 53562.863247 
L 115.682727 53562.863247 
L 115.682727 217.589897 
L 114.414545 217.589897 
z
" style="fill:#1f77b4;"/>
   </g>
   <g id="patch_36">
    <path clip-path="url(#p7e9df1920b)" d="M 115.682727 53562.863247 
L 116.950909 53562.863247 
L 116.950909 234.436768 
L 115.682727 234.436768 
z
" style="fill:#1f77b4;"/>
   </g>
   <g id="patch_37">
    <path clip-path="url(#p7e9df1920b)" d="M 116.950909 53562.863247 
L 118.219091 53562.863247 
L 118.219091 213.239548 
L 116.950909 213.239548 
z
" style="fill:#1f77b4;"/>
   </g>
   <g id="patch_38">
    <path clip-path="url(#p7e9df1920b)" d="M 118.219091 53562.863247 
L 119.487273 53562.863247 
L 119.487273 236.151161 
L 118.219091 236.151161 
z
" style="fill:#1f77b4;"/>
   </g>
   <g id="patch_39">
    <path clip-path="url(#p7e9df1920b)" d="M 119.487273 53562.863247 
L 120.755455 53562.863247 
L 120.755455 236.151161 
L 119.487273 236.151161 
z
" style="fill:#1f77b4;"/>
   </g>
   <g id="patch_40">
    <path clip-path="url(#p7e9df1920b)" d="M 120.755455 53562.863247 
L 122.023636 53562.863247 
L 122.023636 236.151161 
L 120.755455 236.151161 
z
" style="fill:#1f77b4;"/>
   </g>
   <g id="patch_41">
    <path clip-path="url(#p7e9df1920b)" d="M 122.023636 53562.863247 
L 123.291818 53562.863247 
L 123.291818 242.220625 
L 122.023636 242.220625 
z
" style="fill:#1f77b4;"/>
   </g>
   <g id="patch_42">
    <path clip-path="url(#p7e9df1920b)" d="M 123.291818 53562.863247 
L 124.56 53562.863247 
L 124.56 222.952332 
L 123.291818 222.952332 
z
" style="fill:#1f77b4;"/>
   </g>
   <g id="patch_43">
    <path clip-path="url(#p7e9df1920b)" d="M 124.56 53562.863247 
L 125.828182 53562.863247 
L 125.828182 247.382767 
L 124.56 247.382767 
z
" style="fill:#1f77b4;"/>
   </g>
   <g id="patch_44">
    <path clip-path="url(#p7e9df1920b)" d="M 125.828182 53562.863247 
L 127.096364 53562.863247 
L 127.096364 226.185547 
L 125.828182 226.185547 
z
" style="fill:#1f77b4;"/>
   </g>
   <g id="patch_45">
    <path clip-path="url(#p7e9df1920b)" d="M 127.096364 53562.863247 
L 128.364545 53562.863247 
L 128.364545 258.255702 
L 127.096364 258.255702 
z
" style="fill:#1f77b4;"/>
   </g>
   <g id="patch_46">
    <path clip-path="url(#p7e9df1920b)" d="M 128.364545 53562.863247 
L 129.632727 53562.863247 
L 129.632727 227.372152 
L 128.364545 227.372152 
z
" style="fill:#1f77b4;"/>
   </g>
   <g id="patch_47">
    <path clip-path="url(#p7e9df1920b)" d="M 129.632727 53562.863247 
L 130.900909 53562.863247 
L 130.900909 229.945216 
L 129.632727 229.945216 
z
" style="fill:#1f77b4;"/>
   </g>
   <g id="patch_48">
    <path clip-path="url(#p7e9df1920b)" d="M 130.900909 53562.863247 
L 132.169091 53562.863247 
L 132.169091 236.151161 
L 130.900909 236.151161 
z
" style="fill:#1f77b4;"/>
   </g>
   <g id="patch_49">
    <path clip-path="url(#p7e9df1920b)" d="M 132.169091 53562.863247 
L 133.437273 53562.863247 
L 133.437273 242.220625 
L 132.169091 242.220625 
z
" style="fill:#1f77b4;"/>
   </g>
   <g id="patch_50">
    <path clip-path="url(#p7e9df1920b)" d="M 133.437273 53562.863247 
L 134.705455 53562.863247 
L 134.705455 234.436768 
L 133.437273 234.436768 
z
" style="fill:#1f77b4;"/>
   </g>
   <g id="patch_51">
    <path clip-path="url(#p7e9df1920b)" d="M 134.705455 53562.863247 
L 135.973636 53562.863247 
L 135.973636 250.471846 
L 134.705455 250.471846 
z
" style="fill:#1f77b4;"/>
   </g>
   <g id="patch_52">
    <path clip-path="url(#p7e9df1920b)" d="M 135.973636 53562.863247 
L 137.241818 53562.863247 
L 137.241818 240.015745 
L 135.973636 240.015745 
z
" style="fill:#1f77b4;"/>
   </g>
   <g id="patch_53">
    <path clip-path="url(#p7e9df1920b)" d="M 137.241818 53562.863247 
L 138.51 53562.863247 
L 138.51 258.255702 
L 137.241818 258.255702 
z
" style="fill:#1f77b4;"/>
   </g>
   <g id="patch_54">
    <path clip-path="url(#p7e9df1920b)" d="M 138.51 53562.863247 
L 139.778182 53562.863247 
L 139.778182 258.255702 
L 138.51 258.255702 
z
" style="fill:#1f77b4;"/>
   </g>
   <g id="patch_55">
    <path clip-path="url(#p7e9df1920b)" d="M 139.778182 53562.863247 
L 141.046364 53562.863247 
L 141.046364 244.658006 
L 139.778182 244.658006 
z
" style="fill:#1f77b4;"/>
   </g>
   <g id="patch_56">
    <path clip-path="url(#p7e9df1920b)" d="M 141.046364 53562.863247 
L 142.314545 53562.863247 
L 142.314545 270.073003 
L 141.046364 270.073003 
z
" style="fill:#1f77b4;"/>
   </g>
   <g id="patch_57">
    <path clip-path="url(#p7e9df1920b)" d="M 142.314545 53562.863247 
L 143.582727 53562.863247 
L 143.582727 242.220625 
L 142.314545 242.220625 
z
" style="fill:#1f77b4;"/>
   </g>
   <g id="patch_58">
    <path clip-path="url(#p7e9df1920b)" d="M 143.582727 53562.863247 
L 144.850909 53562.863247 
L 144.850909 270.073003 
L 143.582727 270.073003 
z
" style="fill:#1f77b4;"/>
   </g>
   <g id="patch_59">
    <path clip-path="url(#p7e9df1920b)" d="M 144.850909 53562.863247 
L 146.119091 53562.863247 
L 146.119091 238.002848 
L 144.850909 238.002848 
z
" style="fill:#1f77b4;"/>
   </g>
   <g id="patch_60">
    <path clip-path="url(#p7e9df1920b)" d="M 146.119091 53562.863247 
L 147.387273 53562.863247 
L 147.387273 53562.863247 
L 146.119091 53562.863247 
z
" style="fill:#1f77b4;"/>
   </g>
   <g id="patch_61">
    <path clip-path="url(#p7e9df1920b)" d="M 147.387273 53562.863247 
L 148.655455 53562.863247 
L 148.655455 258.255702 
L 147.387273 258.255702 
z
" style="fill:#1f77b4;"/>
   </g>
   <g id="patch_62">
    <path clip-path="url(#p7e9df1920b)" d="M 148.655455 53562.863247 
L 149.923636 53562.863247 
L 149.923636 263.417845 
L 148.655455 263.417845 
z
" style="fill:#1f77b4;"/>
   </g>
   <g id="patch_63">
    <path clip-path="url(#p7e9df1920b)" d="M 149.923636 53562.863247 
L 151.191818 53562.863247 
L 151.191818 250.471846 
L 149.923636 250.471846 
z
" style="fill:#1f77b4;"/>
   </g>
   <g id="patch_64">
    <path clip-path="url(#p7e9df1920b)" d="M 151.191818 53562.863247 
L 152.46 53562.863247 
L 152.46 258.255702 
L 151.191818 258.255702 
z
" style="fill:#1f77b4;"/>
   </g>
   <g id="patch_65">
    <path clip-path="url(#p7e9df1920b)" d="M 152.46 53562.863247 
L 153.728182 53562.863247 
L 153.728182 53562.863247 
L 152.46 53562.863247 
z
" style="fill:#1f77b4;"/>
   </g>
   <g id="patch_66">
    <path clip-path="url(#p7e9df1920b)" d="M 153.728182 53562.863247 
L 154.996364 53562.863247 
L 154.996364 258.255702 
L 153.728182 258.255702 
z
" style="fill:#1f77b4;"/>
   </g>
   <g id="patch_67">
    <path clip-path="url(#p7e9df1920b)" d="M 154.996364 53562.863247 
L 156.264545 53562.863247 
L 156.264545 270.073003 
L 154.996364 270.073003 
z
" style="fill:#1f77b4;"/>
   </g>
   <g id="patch_68">
    <path clip-path="url(#p7e9df1920b)" d="M 156.264545 53562.863247 
L 157.532727 53562.863247 
L 157.532727 250.471846 
L 156.264545 250.471846 
z
" style="fill:#1f77b4;"/>
   </g>
   <g id="patch_69">
    <path clip-path="url(#p7e9df1920b)" d="M 157.532727 53562.863247 
L 158.800909 53562.863247 
L 158.800909 279.452922 
L 157.532727 279.452922 
z
" style="fill:#1f77b4;"/>
   </g>
   <g id="patch_70">
    <path clip-path="url(#p7e9df1920b)" d="M 158.800909 53562.863247 
L 160.069091 53562.863247 
L 160.069091 247.382767 
L 158.800909 247.382767 
z
" style="fill:#1f77b4;"/>
   </g>
   <g id="patch_71">
    <path clip-path="url(#p7e9df1920b)" d="M 160.069091 53562.863247 
L 161.337273 53562.863247 
L 161.337273 279.452922 
L 160.069091 279.452922 
z
" style="fill:#1f77b4;"/>
   </g>
   <g id="patch_72">
    <path clip-path="url(#p7e9df1920b)" d="M 161.337273 53562.863247 
L 162.605455 53562.863247 
L 162.605455 295.488 
L 161.337273 295.488 
z
" style="fill:#1f77b4;"/>
   </g>
   <g id="patch_73">
    <path clip-path="url(#p7e9df1920b)" d="M 162.605455 53562.863247 
L 163.873636 53562.863247 
L 163.873636 263.417845 
L 162.605455 263.417845 
z
" style="fill:#1f77b4;"/>
   </g>
   <g id="patch_74">
    <path clip-path="url(#p7e9df1920b)" d="M 163.873636 53562.863247 
L 165.141818 53562.863247 
L 165.141818 279.452922 
L 163.873636 279.452922 
z
" style="fill:#1f77b4;"/>
   </g>
   <g id="patch_75">
    <path clip-path="url(#p7e9df1920b)" d="M 165.141818 53562.863247 
L 166.41 53562.863247 
L 166.41 270.073003 
L 165.141818 270.073003 
z
" style="fill:#1f77b4;"/>
   </g>
   <g id="patch_76">
    <path clip-path="url(#p7e9df1920b)" d="M 166.41 53562.863247 
L 167.678182 53562.863247 
L 167.678182 270.073003 
L 166.41 270.073003 
z
" style="fill:#1f77b4;"/>
   </g>
   <g id="patch_77">
    <path clip-path="url(#p7e9df1920b)" d="M 167.678182 53562.863247 
L 168.946364 53562.863247 
L 168.946364 254.037925 
L 167.678182 254.037925 
z
" style="fill:#1f77b4;"/>
   </g>
   <g id="patch_78">
    <path clip-path="url(#p7e9df1920b)" d="M 168.946364 53562.863247 
L 170.214545 53562.863247 
L 170.214545 279.452922 
L 168.946364 279.452922 
z
" style="fill:#1f77b4;"/>
   </g>
   <g id="patch_79">
    <path clip-path="url(#p7e9df1920b)" d="M 170.214545 53562.863247 
L 171.482727 53562.863247 
L 171.482727 295.488 
L 170.214545 295.488 
z
" style="fill:#1f77b4;"/>
   </g>
   <g id="patch_80">
    <path clip-path="url(#p7e9df1920b)" d="M 171.482727 53562.863247 
L 172.750909 53562.863247 
L 172.750909 270.073003 
L 171.482727 270.073003 
z
" style="fill:#1f77b4;"/>
   </g>
   <g id="patch_81">
    <path clip-path="url(#p7e9df1920b)" d="M 172.750909 53562.863247 
L 174.019091 53562.863247 
L 174.019091 279.452922 
L 172.750909 279.452922 
z
" style="fill:#1f77b4;"/>
   </g>
   <g id="patch_82">
    <path clip-path="url(#p7e9df1920b)" d="M 174.019091 53562.863247 
L 175.287273 53562.863247 
L 175.287273 279.452922 
L 174.019091 279.452922 
z
" style="fill:#1f77b4;"/>
   </g>
   <g id="patch_83">
    <path clip-path="url(#p7e9df1920b)" d="M 175.287273 53562.863247 
L 176.555455 53562.863247 
L 176.555455 270.073003 
L 175.287273 270.073003 
z
" style="fill:#1f77b4;"/>
   </g>
   <g id="patch_84">
    <path clip-path="url(#p7e9df1920b)" d="M 176.555455 53562.863247 
L 177.823636 53562.863247 
L 177.823636 295.488 
L 176.555455 295.488 
z
" style="fill:#1f77b4;"/>
   </g>
   <g id="patch_85">
    <path clip-path="url(#p7e9df1920b)" d="M 177.823636 53562.863247 
L 179.091818 53562.863247 
L 179.091818 270.073003 
L 177.823636 270.073003 
z
" style="fill:#1f77b4;"/>
   </g>
   <g id="patch_86">
    <path clip-path="url(#p7e9df1920b)" d="M 179.091818 53562.863247 
L 180.36 53562.863247 
L 180.36 279.452922 
L 179.091818 279.452922 
z
" style="fill:#1f77b4;"/>
   </g>
   <g id="patch_87">
    <path clip-path="url(#p7e9df1920b)" d="M 180.36 53562.863247 
L 181.628182 53562.863247 
L 181.628182 263.417845 
L 180.36 263.417845 
z
" style="fill:#1f77b4;"/>
   </g>
   <g id="patch_88">
    <path clip-path="url(#p7e9df1920b)" d="M 181.628182 53562.863247 
L 182.896364 53562.863247 
L 182.896364 295.488 
L 181.628182 295.488 
z
" style="fill:#1f77b4;"/>
   </g>
   <g id="patch_89">
    <path clip-path="url(#p7e9df1920b)" d="M 182.896364 53562.863247 
L 184.164545 53562.863247 
L 184.164545 295.488 
L 182.896364 295.488 
z
" style="fill:#1f77b4;"/>
   </g>
   <g id="patch_90">
    <path clip-path="url(#p7e9df1920b)" d="M 184.164545 53562.863247 
L 185.432727 53562.863247 
L 185.432727 270.073003 
L 184.164545 270.073003 
z
" style="fill:#1f77b4;"/>
   </g>
   <g id="patch_91">
    <path clip-path="url(#p7e9df1920b)" d="M 185.432727 53562.863247 
L 186.700909 53562.863247 
L 186.700909 279.452922 
L 185.432727 279.452922 
z
" style="fill:#1f77b4;"/>
   </g>
   <g id="patch_92">
    <path clip-path="url(#p7e9df1920b)" d="M 186.700909 53562.863247 
L 187.969091 53562.863247 
L 187.969091 295.488 
L 186.700909 295.488 
z
" style="fill:#1f77b4;"/>
   </g>
   <g id="patch_93">
    <path clip-path="url(#p7e9df1920b)" d="M 187.969091 53562.863247 
L 189.237273 53562.863247 
L 189.237273 295.488 
L 187.969091 295.488 
z
" style="fill:#1f77b4;"/>
   </g>
   <g id="patch_94">
    <path clip-path="url(#p7e9df1920b)" d="M 189.237273 53562.863247 
L 190.505455 53562.863247 
L 190.505455 270.073003 
L 189.237273 270.073003 
z
" style="fill:#1f77b4;"/>
   </g>
   <g id="patch_95">
    <path clip-path="url(#p7e9df1920b)" d="M 190.505455 53562.863247 
L 191.773636 53562.863247 
L 191.773636 279.452922 
L 190.505455 279.452922 
z
" style="fill:#1f77b4;"/>
   </g>
   <g id="patch_96">
    <path clip-path="url(#p7e9df1920b)" d="M 191.773636 53562.863247 
L 193.041818 53562.863247 
L 193.041818 53562.863247 
L 191.773636 53562.863247 
z
" style="fill:#1f77b4;"/>
   </g>
   <g id="patch_97">
    <path clip-path="url(#p7e9df1920b)" d="M 193.041818 53562.863247 
L 194.31 53562.863247 
L 194.31 295.488 
L 193.041818 295.488 
z
" style="fill:#1f77b4;"/>
   </g>
   <g id="patch_98">
    <path clip-path="url(#p7e9df1920b)" d="M 194.31 53562.863247 
L 195.578182 53562.863247 
L 195.578182 295.488 
L 194.31 295.488 
z
" style="fill:#1f77b4;"/>
   </g>
   <g id="patch_99">
    <path clip-path="url(#p7e9df1920b)" d="M 195.578182 53562.863247 
L 196.846364 53562.863247 
L 196.846364 295.488 
L 195.578182 295.488 
z
" style="fill:#1f77b4;"/>
   </g>
   <g id="patch_100">
    <path clip-path="url(#p7e9df1920b)" d="M 196.846364 53562.863247 
L 198.114545 53562.863247 
L 198.114545 295.488 
L 196.846364 295.488 
z
" style="fill:#1f77b4;"/>
   </g>
   <g id="patch_101">
    <path clip-path="url(#p7e9df1920b)" d="M 198.114545 53562.863247 
L 199.382727 53562.863247 
L 199.382727 53562.863247 
L 198.114545 53562.863247 
z
" style="fill:#1f77b4;"/>
   </g>
   <g id="patch_102">
    <path clip-path="url(#p7e9df1920b)" d="M 199.382727 53562.863247 
L 200.650909 53562.863247 
L 200.650909 279.452922 
L 199.382727 279.452922 
z
" style="fill:#1f77b4;"/>
   </g>
   <g id="patch_103">
    <path clip-path="url(#p7e9df1920b)" d="M 200.650909 53562.863247 
L 201.919091 53562.863247 
L 201.919091 295.488 
L 200.650909 295.488 
z
" style="fill:#1f77b4;"/>
   </g>
   <g id="patch_104">
    <path clip-path="url(#p7e9df1920b)" d="M 201.919091 53562.863247 
L 203.187273 53562.863247 
L 203.187273 295.488 
L 201.919091 295.488 
z
" style="fill:#1f77b4;"/>
   </g>
   <g id="patch_105">
    <path clip-path="url(#p7e9df1920b)" d="M 203.187273 53562.863247 
L 204.455455 53562.863247 
L 204.455455 270.073003 
L 203.187273 270.073003 
z
" style="fill:#1f77b4;"/>
   </g>
   <g id="patch_106">
    <path clip-path="url(#p7e9df1920b)" d="M 204.455455 53562.863247 
L 205.723636 53562.863247 
L 205.723636 295.488 
L 204.455455 295.488 
z
" style="fill:#1f77b4;"/>
   </g>
   <g id="patch_107">
    <path clip-path="url(#p7e9df1920b)" d="M 205.723636 53562.863247 
L 206.991818 53562.863247 
L 206.991818 295.488 
L 205.723636 295.488 
z
" style="fill:#1f77b4;"/>
   </g>
   <g id="patch_108">
    <path clip-path="url(#p7e9df1920b)" d="M 206.991818 53562.863247 
L 208.26 53562.863247 
L 208.26 53562.863247 
L 206.991818 53562.863247 
z
" style="fill:#1f77b4;"/>
   </g>
   <g id="patch_109">
    <path clip-path="url(#p7e9df1920b)" d="M 208.26 53562.863247 
L 209.528182 53562.863247 
L 209.528182 53562.863247 
L 208.26 53562.863247 
z
" style="fill:#1f77b4;"/>
   </g>
   <g id="patch_110">
    <path clip-path="url(#p7e9df1920b)" d="M 209.528182 53562.863247 
L 210.796364 53562.863247 
L 210.796364 221.96777 
L 209.528182 221.96777 
z
" style="fill:#1f77b4;"/>
   </g>
   <g id="patch_111">
    <path clip-path="url(#p7e9df1920b)" d="M 210.796364 53562.863247 
L 212.064545 53562.863247 
L 212.064545 53562.863247 
L 210.796364 53562.863247 
z
" style="fill:#1f77b4;"/>
   </g>
   <g id="patch_112">
    <path clip-path="url(#p7e9df1920b)" d="M 212.064545 53562.863247 
L 213.332727 53562.863247 
L 213.332727 295.488 
L 212.064545 295.488 
z
" style="fill:#1f77b4;"/>
   </g>
   <g id="patch_113">
    <path clip-path="url(#p7e9df1920b)" d="M 213.332727 53562.863247 
L 214.600909 53562.863247 
L 214.600909 53562.863247 
L 213.332727 53562.863247 
z
" style="fill:#1f77b4;"/>
   </g>
   <g id="patch_114">
    <path clip-path="url(#p7e9df1920b)" d="M 214.600909 53562.863247 
L 215.869091 53562.863247 
L 215.869091 295.488 
L 214.600909 295.488 
z
" style="fill:#1f77b4;"/>
   </g>
   <g id="patch_115">
    <path clip-path="url(#p7e9df1920b)" d="M 215.869091 53562.863247 
L 217.137273 53562.863247 
L 217.137273 53562.863247 
L 215.869091 53562.863247 
z
" style="fill:#1f77b4;"/>
   </g>
   <g id="patch_116">
    <path clip-path="url(#p7e9df1920b)" d="M 217.137273 53562.863247 
L 218.405455 53562.863247 
L 218.405455 295.488 
L 217.137273 295.488 
z
" style="fill:#1f77b4;"/>
   </g>
   <g id="patch_117">
    <path clip-path="url(#p7e9df1920b)" d="M 218.405455 53562.863247 
L 219.673636 53562.863247 
L 219.673636 279.452922 
L 218.405455 279.452922 
z
" style="fill:#1f77b4;"/>
   </g>
   <g id="patch_118">
    <path clip-path="url(#p7e9df1920b)" d="M 219.673636 53562.863247 
L 220.941818 53562.863247 
L 220.941818 53562.863247 
L 219.673636 53562.863247 
z
" style="fill:#1f77b4;"/>
   </g>
   <g id="patch_119">
    <path clip-path="url(#p7e9df1920b)" d="M 220.941818 53562.863247 
L 222.21 53562.863247 
L 222.21 53562.863247 
L 220.941818 53562.863247 
z
" style="fill:#1f77b4;"/>
   </g>
   <g id="patch_120">
    <path clip-path="url(#p7e9df1920b)" d="M 222.21 53562.863247 
L 223.478182 53562.863247 
L 223.478182 295.488 
L 222.21 295.488 
z
" style="fill:#1f77b4;"/>
   </g>
   <g id="patch_121">
    <path clip-path="url(#p7e9df1920b)" d="M 223.478182 53562.863247 
L 224.746364 53562.863247 
L 224.746364 295.488 
L 223.478182 295.488 
z
" style="fill:#1f77b4;"/>
   </g>
   <g id="patch_122">
    <path clip-path="url(#p7e9df1920b)" d="M 224.746364 53562.863247 
L 226.014545 53562.863247 
L 226.014545 53562.863247 
L 224.746364 53562.863247 
z
" style="fill:#1f77b4;"/>
   </g>
   <g id="patch_123">
    <path clip-path="url(#p7e9df1920b)" d="M 226.014545 53562.863247 
L 227.282727 53562.863247 
L 227.282727 53562.863247 
L 226.014545 53562.863247 
z
" style="fill:#1f77b4;"/>
   </g>
   <g id="patch_124">
    <path clip-path="url(#p7e9df1920b)" d="M 227.282727 53562.863247 
L 228.550909 53562.863247 
L 228.550909 279.452922 
L 227.282727 279.452922 
z
" style="fill:#1f77b4;"/>
   </g>
   <g id="patch_125">
    <path clip-path="url(#p7e9df1920b)" d="M 228.550909 53562.863247 
L 229.819091 53562.863247 
L 229.819091 53562.863247 
L 228.550909 53562.863247 
z
" style="fill:#1f77b4;"/>
   </g>
   <g id="patch_126">
    <path clip-path="url(#p7e9df1920b)" d="M 229.819091 53562.863247 
L 231.087273 53562.863247 
L 231.087273 53562.863247 
L 229.819091 53562.863247 
z
" style="fill:#1f77b4;"/>
   </g>
   <g id="patch_127">
    <path clip-path="url(#p7e9df1920b)" d="M 231.087273 53562.863247 
L 232.355455 53562.863247 
L 232.355455 53562.863247 
L 231.087273 53562.863247 
z
" style="fill:#1f77b4;"/>
   </g>
   <g id="patch_128">
    <path clip-path="url(#p7e9df1920b)" d="M 232.355455 53562.863247 
L 233.623636 53562.863247 
L 233.623636 53562.863247 
L 232.355455 53562.863247 
z
" style="fill:#1f77b4;"/>
   </g>
   <g id="patch_129">
    <path clip-path="url(#p7e9df1920b)" d="M 233.623636 53562.863247 
L 234.891818 53562.863247 
L 234.891818 295.488 
L 233.623636 295.488 
z
" style="fill:#1f77b4;"/>
   </g>
   <g id="patch_130">
    <path clip-path="url(#p7e9df1920b)" d="M 234.891818 53562.863247 
L 236.16 53562.863247 
L 236.16 53562.863247 
L 234.891818 53562.863247 
z
" style="fill:#1f77b4;"/>
   </g>
   <g id="patch_131">
    <path clip-path="url(#p7e9df1920b)" d="M 236.16 53562.863247 
L 237.428182 53562.863247 
L 237.428182 279.452922 
L 236.16 279.452922 
z
" style="fill:#1f77b4;"/>
   </g>
   <g id="patch_132">
    <path clip-path="url(#p7e9df1920b)" d="M 237.428182 53562.863247 
L 238.696364 53562.863247 
L 238.696364 53562.863247 
L 237.428182 53562.863247 
z
" style="fill:#1f77b4;"/>
   </g>
   <g id="patch_133">
    <path clip-path="url(#p7e9df1920b)" d="M 238.696364 53562.863247 
L 239.964545 53562.863247 
L 239.964545 53562.863247 
L 238.696364 53562.863247 
z
" style="fill:#1f77b4;"/>
   </g>
   <g id="patch_134">
    <path clip-path="url(#p7e9df1920b)" d="M 239.964545 53562.863247 
L 241.232727 53562.863247 
L 241.232727 53562.863247 
L 239.964545 53562.863247 
z
" style="fill:#1f77b4;"/>
   </g>
   <g id="patch_135">
    <path clip-path="url(#p7e9df1920b)" d="M 241.232727 53562.863247 
L 242.500909 53562.863247 
L 242.500909 279.452922 
L 241.232727 279.452922 
z
" style="fill:#1f77b4;"/>
   </g>
   <g id="patch_136">
    <path clip-path="url(#p7e9df1920b)" d="M 242.500909 53562.863247 
L 243.769091 53562.863247 
L 243.769091 53562.863247 
L 242.500909 53562.863247 
z
" style="fill:#1f77b4;"/>
   </g>
   <g id="patch_137">
    <path clip-path="url(#p7e9df1920b)" d="M 243.769091 53562.863247 
L 245.037273 53562.863247 
L 245.037273 295.488 
L 243.769091 295.488 
z
" style="fill:#1f77b4;"/>
   </g>
   <g id="patch_138">
    <path clip-path="url(#p7e9df1920b)" d="M 245.037273 53562.863247 
L 246.305455 53562.863247 
L 246.305455 53562.863247 
L 245.037273 53562.863247 
z
" style="fill:#1f77b4;"/>
   </g>
   <g id="patch_139">
    <path clip-path="url(#p7e9df1920b)" d="M 246.305455 53562.863247 
L 247.573636 53562.863247 
L 247.573636 263.417845 
L 246.305455 263.417845 
z
" style="fill:#1f77b4;"/>
   </g>
   <g id="patch_140">
    <path clip-path="url(#p7e9df1920b)" d="M 247.573636 53562.863247 
L 248.841818 53562.863247 
L 248.841818 270.073003 
L 247.573636 270.073003 
z
" style="fill:#1f77b4;"/>
   </g>
   <g id="patch_141">
    <path clip-path="url(#p7e9df1920b)" d="M 248.841818 53562.863247 
L 250.11 53562.863247 
L 250.11 53562.863247 
L 248.841818 53562.863247 
z
" style="fill:#1f77b4;"/>
   </g>
   <g id="patch_142">
    <path clip-path="url(#p7e9df1920b)" d="M 250.11 53562.863247 
L 251.378182 53562.863247 
L 251.378182 295.488 
L 250.11 295.488 
z
" style="fill:#1f77b4;"/>
   </g>
   <g id="patch_143">
    <path clip-path="url(#p7e9df1920b)" d="M 251.378182 53562.863247 
L 252.646364 53562.863247 
L 252.646364 53562.863247 
L 251.378182 53562.863247 
z
" style="fill:#1f77b4;"/>
   </g>
   <g id="patch_144">
    <path clip-path="url(#p7e9df1920b)" d="M 252.646364 53562.863247 
L 253.914545 53562.863247 
L 253.914545 53562.863247 
L 252.646364 53562.863247 
z
" style="fill:#1f77b4;"/>
   </g>
   <g id="patch_145">
    <path clip-path="url(#p7e9df1920b)" d="M 253.914545 53562.863247 
L 255.182727 53562.863247 
L 255.182727 295.488 
L 253.914545 295.488 
z
" style="fill:#1f77b4;"/>
   </g>
   <g id="patch_146">
    <path clip-path="url(#p7e9df1920b)" d="M 255.182727 53562.863247 
L 256.450909 53562.863247 
L 256.450909 53562.863247 
L 255.182727 53562.863247 
z
" style="fill:#1f77b4;"/>
   </g>
   <g id="patch_147">
    <path clip-path="url(#p7e9df1920b)" d="M 256.450909 53562.863247 
L 257.719091 53562.863247 
L 257.719091 53562.863247 
L 256.450909 53562.863247 
z
" style="fill:#1f77b4;"/>
   </g>
   <g id="patch_148">
    <path clip-path="url(#p7e9df1920b)" d="M 257.719091 53562.863247 
L 258.987273 53562.863247 
L 258.987273 53562.863247 
L 257.719091 53562.863247 
z
" style="fill:#1f77b4;"/>
   </g>
   <g id="patch_149">
    <path clip-path="url(#p7e9df1920b)" d="M 258.987273 53562.863247 
L 260.255455 53562.863247 
L 260.255455 53562.863247 
L 258.987273 53562.863247 
z
" style="fill:#1f77b4;"/>
   </g>
   <g id="patch_150">
    <path clip-path="url(#p7e9df1920b)" d="M 260.255455 53562.863247 
L 261.523636 53562.863247 
L 261.523636 53562.863247 
L 260.255455 53562.863247 
z
" style="fill:#1f77b4;"/>
   </g>
   <g id="patch_151">
    <path clip-path="url(#p7e9df1920b)" d="M 261.523636 53562.863247 
L 262.791818 53562.863247 
L 262.791818 279.452922 
L 261.523636 279.452922 
z
" style="fill:#1f77b4;"/>
   </g>
   <g id="patch_152">
    <path clip-path="url(#p7e9df1920b)" d="M 262.791818 53562.863247 
L 264.06 53562.863247 
L 264.06 53562.863247 
L 262.791818 53562.863247 
z
" style="fill:#1f77b4;"/>
   </g>
   <g id="patch_153">
    <path clip-path="url(#p7e9df1920b)" d="M 264.06 53562.863247 
L 265.328182 53562.863247 
L 265.328182 53562.863247 
L 264.06 53562.863247 
z
" style="fill:#1f77b4;"/>
   </g>
   <g id="patch_154">
    <path clip-path="url(#p7e9df1920b)" d="M 265.328182 53562.863247 
L 266.596364 53562.863247 
L 266.596364 53562.863247 
L 265.328182 53562.863247 
z
" style="fill:#1f77b4;"/>
   </g>
   <g id="patch_155">
    <path clip-path="url(#p7e9df1920b)" d="M 266.596364 53562.863247 
L 267.864545 53562.863247 
L 267.864545 53562.863247 
L 266.596364 53562.863247 
z
" style="fill:#1f77b4;"/>
   </g>
   <g id="patch_156">
    <path clip-path="url(#p7e9df1920b)" d="M 267.864545 53562.863247 
L 269.132727 53562.863247 
L 269.132727 295.488 
L 267.864545 295.488 
z
" style="fill:#1f77b4;"/>
   </g>
   <g id="patch_157">
    <path clip-path="url(#p7e9df1920b)" d="M 269.132727 53562.863247 
L 270.400909 53562.863247 
L 270.400909 295.488 
L 269.132727 295.488 
z
" style="fill:#1f77b4;"/>
   </g>
   <g id="patch_158">
    <path clip-path="url(#p7e9df1920b)" d="M 270.400909 53562.863247 
L 271.669091 53562.863247 
L 271.669091 295.488 
L 270.400909 295.488 
z
" style="fill:#1f77b4;"/>
   </g>
   <g id="patch_159">
    <path clip-path="url(#p7e9df1920b)" d="M 271.669091 53562.863247 
L 272.937273 53562.863247 
L 272.937273 53562.863247 
L 271.669091 53562.863247 
z
" style="fill:#1f77b4;"/>
   </g>
   <g id="patch_160">
    <path clip-path="url(#p7e9df1920b)" d="M 272.937273 53562.863247 
L 274.205455 53562.863247 
L 274.205455 53562.863247 
L 272.937273 53562.863247 
z
" style="fill:#1f77b4;"/>
   </g>
   <g id="patch_161">
    <path clip-path="url(#p7e9df1920b)" d="M 274.205455 53562.863247 
L 275.473636 53562.863247 
L 275.473636 53562.863247 
L 274.205455 53562.863247 
z
" style="fill:#1f77b4;"/>
   </g>
   <g id="patch_162">
    <path clip-path="url(#p7e9df1920b)" d="M 275.473636 53562.863247 
L 276.741818 53562.863247 
L 276.741818 53562.863247 
L 275.473636 53562.863247 
z
" style="fill:#1f77b4;"/>
   </g>
   <g id="patch_163">
    <path clip-path="url(#p7e9df1920b)" d="M 276.741818 53562.863247 
L 278.01 53562.863247 
L 278.01 53562.863247 
L 276.741818 53562.863247 
z
" style="fill:#1f77b4;"/>
   </g>
   <g id="patch_164">
    <path clip-path="url(#p7e9df1920b)" d="M 278.01 53562.863247 
L 279.278182 53562.863247 
L 279.278182 295.488 
L 278.01 295.488 
z
" style="fill:#1f77b4;"/>
   </g>
   <g id="patch_165">
    <path clip-path="url(#p7e9df1920b)" d="M 279.278182 53562.863247 
L 280.546364 53562.863247 
L 280.546364 279.452922 
L 279.278182 279.452922 
z
" style="fill:#1f77b4;"/>
   </g>
   <g id="patch_166">
    <path clip-path="url(#p7e9df1920b)" d="M 280.546364 53562.863247 
L 281.814545 53562.863247 
L 281.814545 295.488 
L 280.546364 295.488 
z
" style="fill:#1f77b4;"/>
   </g>
   <g id="patch_167">
    <path clip-path="url(#p7e9df1920b)" d="M 281.814545 53562.863247 
L 283.082727 53562.863247 
L 283.082727 53562.863247 
L 281.814545 53562.863247 
z
" style="fill:#1f77b4;"/>
   </g>
   <g id="patch_168">
    <path clip-path="url(#p7e9df1920b)" d="M 283.082727 53562.863247 
L 284.350909 53562.863247 
L 284.350909 53562.863247 
L 283.082727 53562.863247 
z
" style="fill:#1f77b4;"/>
   </g>
   <g id="patch_169">
    <path clip-path="url(#p7e9df1920b)" d="M 284.350909 53562.863247 
L 285.619091 53562.863247 
L 285.619091 53562.863247 
L 284.350909 53562.863247 
z
" style="fill:#1f77b4;"/>
   </g>
   <g id="patch_170">
    <path clip-path="url(#p7e9df1920b)" d="M 285.619091 53562.863247 
L 286.887273 53562.863247 
L 286.887273 279.452922 
L 285.619091 279.452922 
z
" style="fill:#1f77b4;"/>
   </g>
   <g id="patch_171">
    <path clip-path="url(#p7e9df1920b)" d="M 286.887273 53562.863247 
L 288.155455 53562.863247 
L 288.155455 295.488 
L 286.887273 295.488 
z
" style="fill:#1f77b4;"/>
   </g>
   <g id="patch_172">
    <path clip-path="url(#p7e9df1920b)" d="M 288.155455 53562.863247 
L 289.423636 53562.863247 
L 289.423636 295.488 
L 288.155455 295.488 
z
" style="fill:#1f77b4;"/>
   </g>
   <g id="patch_173">
    <path clip-path="url(#p7e9df1920b)" d="M 289.423636 53562.863247 
L 290.691818 53562.863247 
L 290.691818 279.452922 
L 289.423636 279.452922 
z
" style="fill:#1f77b4;"/>
   </g>
   <g id="patch_174">
    <path clip-path="url(#p7e9df1920b)" d="M 290.691818 53562.863247 
L 291.96 53562.863247 
L 291.96 53562.863247 
L 290.691818 53562.863247 
z
" style="fill:#1f77b4;"/>
   </g>
   <g id="patch_175">
    <path clip-path="url(#p7e9df1920b)" d="M 291.96 53562.863247 
L 293.228182 53562.863247 
L 293.228182 53562.863247 
L 291.96 53562.863247 
z
" style="fill:#1f77b4;"/>
   </g>
   <g id="patch_176">
    <path clip-path="url(#p7e9df1920b)" d="M 293.228182 53562.863247 
L 294.496364 53562.863247 
L 294.496364 263.417845 
L 293.228182 263.417845 
z
" style="fill:#1f77b4;"/>
   </g>
   <g id="patch_177">
    <path clip-path="url(#p7e9df1920b)" d="M 294.496364 53562.863247 
L 295.764545 53562.863247 
L 295.764545 53562.863247 
L 294.496364 53562.863247 
z
" style="fill:#1f77b4;"/>
   </g>
   <g id="patch_178">
    <path clip-path="url(#p7e9df1920b)" d="M 295.764545 53562.863247 
L 297.032727 53562.863247 
L 297.032727 53562.863247 
L 295.764545 53562.863247 
z
" style="fill:#1f77b4;"/>
   </g>
   <g id="patch_179">
    <path clip-path="url(#p7e9df1920b)" d="M 297.032727 53562.863247 
L 298.300909 53562.863247 
L 298.300909 279.452922 
L 297.032727 279.452922 
z
" style="fill:#1f77b4;"/>
   </g>
   <g id="patch_180">
    <path clip-path="url(#p7e9df1920b)" d="M 298.300909 53562.863247 
L 299.569091 53562.863247 
L 299.569091 279.452922 
L 298.300909 279.452922 
z
" style="fill:#1f77b4;"/>
   </g>
   <g id="patch_181">
    <path clip-path="url(#p7e9df1920b)" d="M 299.569091 53562.863247 
L 300.837273 53562.863247 
L 300.837273 295.488 
L 299.569091 295.488 
z
" style="fill:#1f77b4;"/>
   </g>
   <g id="patch_182">
    <path clip-path="url(#p7e9df1920b)" d="M 300.837273 53562.863247 
L 302.105455 53562.863247 
L 302.105455 53562.863247 
L 300.837273 53562.863247 
z
" style="fill:#1f77b4;"/>
   </g>
   <g id="patch_183">
    <path clip-path="url(#p7e9df1920b)" d="M 302.105455 53562.863247 
L 303.373636 53562.863247 
L 303.373636 53562.863247 
L 302.105455 53562.863247 
z
" style="fill:#1f77b4;"/>
   </g>
   <g id="patch_184">
    <path clip-path="url(#p7e9df1920b)" d="M 303.373636 53562.863247 
L 304.641818 53562.863247 
L 304.641818 53562.863247 
L 303.373636 53562.863247 
z
" style="fill:#1f77b4;"/>
   </g>
   <g id="patch_185">
    <path clip-path="url(#p7e9df1920b)" d="M 304.641818 53562.863247 
L 305.91 53562.863247 
L 305.91 295.488 
L 304.641818 295.488 
z
" style="fill:#1f77b4;"/>
   </g>
   <g id="patch_186">
    <path clip-path="url(#p7e9df1920b)" d="M 305.91 53562.863247 
L 307.178182 53562.863247 
L 307.178182 295.488 
L 305.91 295.488 
z
" style="fill:#1f77b4;"/>
   </g>
   <g id="patch_187">
    <path clip-path="url(#p7e9df1920b)" d="M 307.178182 53562.863247 
L 308.446364 53562.863247 
L 308.446364 295.488 
L 307.178182 295.488 
z
" style="fill:#1f77b4;"/>
   </g>
   <g id="patch_188">
    <path clip-path="url(#p7e9df1920b)" d="M 308.446364 53562.863247 
L 309.714545 53562.863247 
L 309.714545 53562.863247 
L 308.446364 53562.863247 
z
" style="fill:#1f77b4;"/>
   </g>
   <g id="patch_189">
    <path clip-path="url(#p7e9df1920b)" d="M 309.714545 53562.863247 
L 310.982727 53562.863247 
L 310.982727 53562.863247 
L 309.714545 53562.863247 
z
" style="fill:#1f77b4;"/>
   </g>
   <g id="patch_190">
    <path clip-path="url(#p7e9df1920b)" d="M 310.982727 53562.863247 
L 312.250909 53562.863247 
L 312.250909 53562.863247 
L 310.982727 53562.863247 
z
" style="fill:#1f77b4;"/>
   </g>
   <g id="patch_191">
    <path clip-path="url(#p7e9df1920b)" d="M 312.250909 53562.863247 
L 313.519091 53562.863247 
L 313.519091 295.488 
L 312.250909 295.488 
z
" style="fill:#1f77b4;"/>
   </g>
   <g id="patch_192">
    <path clip-path="url(#p7e9df1920b)" d="M 313.519091 53562.863247 
L 314.787273 53562.863247 
L 314.787273 53562.863247 
L 313.519091 53562.863247 
z
" style="fill:#1f77b4;"/>
   </g>
   <g id="patch_193">
    <path clip-path="url(#p7e9df1920b)" d="M 314.787273 53562.863247 
L 316.055455 53562.863247 
L 316.055455 53562.863247 
L 314.787273 53562.863247 
z
" style="fill:#1f77b4;"/>
   </g>
   <g id="patch_194">
    <path clip-path="url(#p7e9df1920b)" d="M 316.055455 53562.863247 
L 317.323636 53562.863247 
L 317.323636 53562.863247 
L 316.055455 53562.863247 
z
" style="fill:#1f77b4;"/>
   </g>
   <g id="patch_195">
    <path clip-path="url(#p7e9df1920b)" d="M 317.323636 53562.863247 
L 318.591818 53562.863247 
L 318.591818 295.488 
L 317.323636 295.488 
z
" style="fill:#1f77b4;"/>
   </g>
   <g id="patch_196">
    <path clip-path="url(#p7e9df1920b)" d="M 318.591818 53562.863247 
L 319.86 53562.863247 
L 319.86 53562.863247 
L 318.591818 53562.863247 
z
" style="fill:#1f77b4;"/>
   </g>
   <g id="patch_197">
    <path clip-path="url(#p7e9df1920b)" d="M 319.86 53562.863247 
L 321.128182 53562.863247 
L 321.128182 53562.863247 
L 319.86 53562.863247 
z
" style="fill:#1f77b4;"/>
   </g>
   <g id="patch_198">
    <path clip-path="url(#p7e9df1920b)" d="M 321.128182 53562.863247 
L 322.396364 53562.863247 
L 322.396364 53562.863247 
L 321.128182 53562.863247 
z
" style="fill:#1f77b4;"/>
   </g>
   <g id="patch_199">
    <path clip-path="url(#p7e9df1920b)" d="M 322.396364 53562.863247 
L 323.664545 53562.863247 
L 323.664545 53562.863247 
L 322.396364 53562.863247 
z
" style="fill:#1f77b4;"/>
   </g>
   <g id="patch_200">
    <path clip-path="url(#p7e9df1920b)" d="M 323.664545 53562.863247 
L 324.932727 53562.863247 
L 324.932727 53562.863247 
L 323.664545 53562.863247 
z
" style="fill:#1f77b4;"/>
   </g>
   <g id="patch_201">
    <path clip-path="url(#p7e9df1920b)" d="M 324.932727 53562.863247 
L 326.200909 53562.863247 
L 326.200909 53562.863247 
L 324.932727 53562.863247 
z
" style="fill:#1f77b4;"/>
   </g>
   <g id="patch_202">
    <path clip-path="url(#p7e9df1920b)" d="M 326.200909 53562.863247 
L 327.469091 53562.863247 
L 327.469091 53562.863247 
L 326.200909 53562.863247 
z
" style="fill:#1f77b4;"/>
   </g>
   <g id="patch_203">
    <path clip-path="url(#p7e9df1920b)" d="M 327.469091 53562.863247 
L 328.737273 53562.863247 
L 328.737273 53562.863247 
L 327.469091 53562.863247 
z
" style="fill:#1f77b4;"/>
   </g>
   <g id="patch_204">
    <path clip-path="url(#p7e9df1920b)" d="M 328.737273 53562.863247 
L 330.005455 53562.863247 
L 330.005455 295.488 
L 328.737273 295.488 
z
" style="fill:#1f77b4;"/>
   </g>
   <g id="patch_205">
    <path clip-path="url(#p7e9df1920b)" d="M 330.005455 53562.863247 
L 331.273636 53562.863247 
L 331.273636 295.488 
L 330.005455 295.488 
z
" style="fill:#1f77b4;"/>
   </g>
   <g id="patch_206">
    <path clip-path="url(#p7e9df1920b)" d="M 331.273636 53562.863247 
L 332.541818 53562.863247 
L 332.541818 53562.863247 
L 331.273636 53562.863247 
z
" style="fill:#1f77b4;"/>
   </g>
   <g id="patch_207">
    <path clip-path="url(#p7e9df1920b)" d="M 332.541818 53562.863247 
L 333.81 53562.863247 
L 333.81 295.488 
L 332.541818 295.488 
z
" style="fill:#1f77b4;"/>
   </g>
   <g id="patch_208">
    <path clip-path="url(#p7e9df1920b)" d="M 333.81 53562.863247 
L 335.078182 53562.863247 
L 335.078182 270.073003 
L 333.81 270.073003 
z
" style="fill:#1f77b4;"/>
   </g>
   <g id="patch_209">
    <path clip-path="url(#p7e9df1920b)" d="M 335.078182 53562.863247 
L 336.346364 53562.863247 
L 336.346364 53562.863247 
L 335.078182 53562.863247 
z
" style="fill:#1f77b4;"/>
   </g>
   <g id="patch_210">
    <path clip-path="url(#p7e9df1920b)" d="M 336.346364 53562.863247 
L 337.614545 53562.863247 
L 337.614545 53562.863247 
L 336.346364 53562.863247 
z
" style="fill:#1f77b4;"/>
   </g>
   <g id="patch_211">
    <path clip-path="url(#p7e9df1920b)" d="M 337.614545 53562.863247 
L 338.882727 53562.863247 
L 338.882727 53562.863247 
L 337.614545 53562.863247 
z
" style="fill:#1f77b4;"/>
   </g>
   <g id="patch_212">
    <path clip-path="url(#p7e9df1920b)" d="M 338.882727 53562.863247 
L 340.150909 53562.863247 
L 340.150909 53562.863247 
L 338.882727 53562.863247 
z
" style="fill:#1f77b4;"/>
   </g>
   <g id="patch_213">
    <path clip-path="url(#p7e9df1920b)" d="M 340.150909 53562.863247 
L 341.419091 53562.863247 
L 341.419091 295.488 
L 340.150909 295.488 
z
" style="fill:#1f77b4;"/>
   </g>
   <g id="patch_214">
    <path clip-path="url(#p7e9df1920b)" d="M 341.419091 53562.863247 
L 342.687273 53562.863247 
L 342.687273 295.488 
L 341.419091 295.488 
z
" style="fill:#1f77b4;"/>
   </g>
   <g id="patch_215">
    <path clip-path="url(#p7e9df1920b)" d="M 342.687273 53562.863247 
L 343.955455 53562.863247 
L 343.955455 295.488 
L 342.687273 295.488 
z
" style="fill:#1f77b4;"/>
   </g>
   <g id="patch_216">
    <path clip-path="url(#p7e9df1920b)" d="M 343.955455 53562.863247 
L 345.223636 53562.863247 
L 345.223636 53562.863247 
L 343.955455 53562.863247 
z
" style="fill:#1f77b4;"/>
   </g>
   <g id="patch_217">
    <path clip-path="url(#p7e9df1920b)" d="M 345.223636 53562.863247 
L 346.491818 53562.863247 
L 346.491818 295.488 
L 345.223636 295.488 
z
" style="fill:#1f77b4;"/>
   </g>
   <g id="patch_218">
    <path clip-path="url(#p7e9df1920b)" d="M 346.491818 53562.863247 
L 347.76 53562.863247 
L 347.76 53562.863247 
L 346.491818 53562.863247 
z
" style="fill:#1f77b4;"/>
   </g>
   <g id="patch_219">
    <path clip-path="url(#p7e9df1920b)" d="M 347.76 53562.863247 
L 349.028182 53562.863247 
L 349.028182 53562.863247 
L 347.76 53562.863247 
z
" style="fill:#1f77b4;"/>
   </g>
   <g id="patch_220">
    <path clip-path="url(#p7e9df1920b)" d="M 349.028182 53562.863247 
L 350.296364 53562.863247 
L 350.296364 53562.863247 
L 349.028182 53562.863247 
z
" style="fill:#1f77b4;"/>
   </g>
   <g id="patch_221">
    <path clip-path="url(#p7e9df1920b)" d="M 350.296364 53562.863247 
L 351.564545 53562.863247 
L 351.564545 53562.863247 
L 350.296364 53562.863247 
z
" style="fill:#1f77b4;"/>
   </g>
   <g id="patch_222">
    <path clip-path="url(#p7e9df1920b)" d="M 351.564545 53562.863247 
L 352.832727 53562.863247 
L 352.832727 53562.863247 
L 351.564545 53562.863247 
z
" style="fill:#1f77b4;"/>
   </g>
   <g id="patch_223">
    <path clip-path="url(#p7e9df1920b)" d="M 352.832727 53562.863247 
L 354.100909 53562.863247 
L 354.100909 295.488 
L 352.832727 295.488 
z
" style="fill:#1f77b4;"/>
   </g>
   <g id="patch_224">
    <path clip-path="url(#p7e9df1920b)" d="M 354.100909 53562.863247 
L 355.369091 53562.863247 
L 355.369091 53562.863247 
L 354.100909 53562.863247 
z
" style="fill:#1f77b4;"/>
   </g>
   <g id="patch_225">
    <path clip-path="url(#p7e9df1920b)" d="M 355.369091 53562.863247 
L 356.637273 53562.863247 
L 356.637273 295.488 
L 355.369091 295.488 
z
" style="fill:#1f77b4;"/>
   </g>
   <g id="patch_226">
    <path clip-path="url(#p7e9df1920b)" d="M 356.637273 53562.863247 
L 357.905455 53562.863247 
L 357.905455 279.452922 
L 356.637273 279.452922 
z
" style="fill:#1f77b4;"/>
   </g>
   <g id="patch_227">
    <path clip-path="url(#p7e9df1920b)" d="M 357.905455 53562.863247 
L 359.173636 53562.863247 
L 359.173636 53562.863247 
L 357.905455 53562.863247 
z
" style="fill:#1f77b4;"/>
   </g>
   <g id="patch_228">
    <path clip-path="url(#p7e9df1920b)" d="M 359.173636 53562.863247 
L 360.441818 53562.863247 
L 360.441818 53562.863247 
L 359.173636 53562.863247 
z
" style="fill:#1f77b4;"/>
   </g>
   <g id="patch_229">
    <path clip-path="url(#p7e9df1920b)" d="M 360.441818 53562.863247 
L 361.71 53562.863247 
L 361.71 53562.863247 
L 360.441818 53562.863247 
z
" style="fill:#1f77b4;"/>
   </g>
   <g id="patch_230">
    <path clip-path="url(#p7e9df1920b)" d="M 361.71 53562.863247 
L 362.978182 53562.863247 
L 362.978182 53562.863247 
L 361.71 53562.863247 
z
" style="fill:#1f77b4;"/>
   </g>
   <g id="patch_231">
    <path clip-path="url(#p7e9df1920b)" d="M 362.978182 53562.863247 
L 364.246364 53562.863247 
L 364.246364 53562.863247 
L 362.978182 53562.863247 
z
" style="fill:#1f77b4;"/>
   </g>
   <g id="patch_232">
    <path clip-path="url(#p7e9df1920b)" d="M 364.246364 53562.863247 
L 365.514545 53562.863247 
L 365.514545 53562.863247 
L 364.246364 53562.863247 
z
" style="fill:#1f77b4;"/>
   </g>
   <g id="patch_233">
    <path clip-path="url(#p7e9df1920b)" d="M 365.514545 53562.863247 
L 366.782727 53562.863247 
L 366.782727 53562.863247 
L 365.514545 53562.863247 
z
" style="fill:#1f77b4;"/>
   </g>
   <g id="patch_234">
    <path clip-path="url(#p7e9df1920b)" d="M 366.782727 53562.863247 
L 368.050909 53562.863247 
L 368.050909 53562.863247 
L 366.782727 53562.863247 
z
" style="fill:#1f77b4;"/>
   </g>
   <g id="patch_235">
    <path clip-path="url(#p7e9df1920b)" d="M 368.050909 53562.863247 
L 369.319091 53562.863247 
L 369.319091 295.488 
L 368.050909 295.488 
z
" style="fill:#1f77b4;"/>
   </g>
   <g id="patch_236">
    <path clip-path="url(#p7e9df1920b)" d="M 369.319091 53562.863247 
L 370.587273 53562.863247 
L 370.587273 295.488 
L 369.319091 295.488 
z
" style="fill:#1f77b4;"/>
   </g>
   <g id="patch_237">
    <path clip-path="url(#p7e9df1920b)" d="M 370.587273 53562.863247 
L 371.855455 53562.863247 
L 371.855455 53562.863247 
L 370.587273 53562.863247 
z
" style="fill:#1f77b4;"/>
   </g>
   <g id="patch_238">
    <path clip-path="url(#p7e9df1920b)" d="M 371.855455 53562.863247 
L 373.123636 53562.863247 
L 373.123636 53562.863247 
L 371.855455 53562.863247 
z
" style="fill:#1f77b4;"/>
   </g>
   <g id="patch_239">
    <path clip-path="url(#p7e9df1920b)" d="M 373.123636 53562.863247 
L 374.391818 53562.863247 
L 374.391818 53562.863247 
L 373.123636 53562.863247 
z
" style="fill:#1f77b4;"/>
   </g>
   <g id="patch_240">
    <path clip-path="url(#p7e9df1920b)" d="M 374.391818 53562.863247 
L 375.66 53562.863247 
L 375.66 53562.863247 
L 374.391818 53562.863247 
z
" style="fill:#1f77b4;"/>
   </g>
   <g id="patch_241">
    <path clip-path="url(#p7e9df1920b)" d="M 375.66 53562.863247 
L 376.928182 53562.863247 
L 376.928182 53562.863247 
L 375.66 53562.863247 
z
" style="fill:#1f77b4;"/>
   </g>
   <g id="patch_242">
    <path clip-path="url(#p7e9df1920b)" d="M 376.928182 53562.863247 
L 378.196364 53562.863247 
L 378.196364 53562.863247 
L 376.928182 53562.863247 
z
" style="fill:#1f77b4;"/>
   </g>
   <g id="patch_243">
    <path clip-path="url(#p7e9df1920b)" d="M 378.196364 53562.863247 
L 379.464545 53562.863247 
L 379.464545 295.488 
L 378.196364 295.488 
z
" style="fill:#1f77b4;"/>
   </g>
   <g id="patch_244">
    <path clip-path="url(#p7e9df1920b)" d="M 379.464545 53562.863247 
L 380.732727 53562.863247 
L 380.732727 295.488 
L 379.464545 295.488 
z
" style="fill:#1f77b4;"/>
   </g>
   <g id="patch_245">
    <path clip-path="url(#p7e9df1920b)" d="M 380.732727 53562.863247 
L 382.000909 53562.863247 
L 382.000909 53562.863247 
L 380.732727 53562.863247 
z
" style="fill:#1f77b4;"/>
   </g>
   <g id="patch_246">
    <path clip-path="url(#p7e9df1920b)" d="M 382.000909 53562.863247 
L 383.269091 53562.863247 
L 383.269091 295.488 
L 382.000909 295.488 
z
" style="fill:#1f77b4;"/>
   </g>
   <g id="patch_247">
    <path clip-path="url(#p7e9df1920b)" d="M 383.269091 53562.863247 
L 384.537273 53562.863247 
L 384.537273 53562.863247 
L 383.269091 53562.863247 
z
" style="fill:#1f77b4;"/>
   </g>
   <g id="patch_248">
    <path clip-path="url(#p7e9df1920b)" d="M 384.537273 53562.863247 
L 385.805455 53562.863247 
L 385.805455 295.488 
L 384.537273 295.488 
z
" style="fill:#1f77b4;"/>
   </g>
   <g id="patch_249">
    <path clip-path="url(#p7e9df1920b)" d="M 385.805455 53562.863247 
L 387.073636 53562.863247 
L 387.073636 53562.863247 
L 385.805455 53562.863247 
z
" style="fill:#1f77b4;"/>
   </g>
   <g id="patch_250">
    <path clip-path="url(#p7e9df1920b)" d="M 387.073636 53562.863247 
L 388.341818 53562.863247 
L 388.341818 53562.863247 
L 387.073636 53562.863247 
z
" style="fill:#1f77b4;"/>
   </g>
   <g id="patch_251">
    <path clip-path="url(#p7e9df1920b)" d="M 388.341818 53562.863247 
L 389.61 53562.863247 
L 389.61 53562.863247 
L 388.341818 53562.863247 
z
" style="fill:#1f77b4;"/>
   </g>
   <g id="patch_252">
    <path clip-path="url(#p7e9df1920b)" d="M 389.61 53562.863247 
L 390.878182 53562.863247 
L 390.878182 53562.863247 
L 389.61 53562.863247 
z
" style="fill:#1f77b4;"/>
   </g>
   <g id="patch_253">
    <path clip-path="url(#p7e9df1920b)" d="M 390.878182 53562.863247 
L 392.146364 53562.863247 
L 392.146364 53562.863247 
L 390.878182 53562.863247 
z
" style="fill:#1f77b4;"/>
   </g>
   <g id="patch_254">
    <path clip-path="url(#p7e9df1920b)" d="M 392.146364 53562.863247 
L 393.414545 53562.863247 
L 393.414545 53562.863247 
L 392.146364 53562.863247 
z
" style="fill:#1f77b4;"/>
   </g>
   <g id="patch_255">
    <path clip-path="url(#p7e9df1920b)" d="M 393.414545 53562.863247 
L 394.682727 53562.863247 
L 394.682727 53562.863247 
L 393.414545 53562.863247 
z
" style="fill:#1f77b4;"/>
   </g>
   <g id="patch_256">
    <path clip-path="url(#p7e9df1920b)" d="M 394.682727 53562.863247 
L 395.950909 53562.863247 
L 395.950909 53562.863247 
L 394.682727 53562.863247 
z
" style="fill:#1f77b4;"/>
   </g>
   <g id="patch_257">
    <path clip-path="url(#p7e9df1920b)" d="M 395.950909 53562.863247 
L 397.219091 53562.863247 
L 397.219091 53562.863247 
L 395.950909 53562.863247 
z
" style="fill:#1f77b4;"/>
   </g>
   <g id="patch_258">
    <path clip-path="url(#p7e9df1920b)" d="M 397.219091 53562.863247 
L 398.487273 53562.863247 
L 398.487273 295.488 
L 397.219091 295.488 
z
" style="fill:#1f77b4;"/>
   </g>
   <g id="matplotlib.axis_1">
    <g id="xtick_1">
     <g id="line2d_1">
      <path clip-path="url(#p7e9df1920b)" d="M 73.317403 307.584 
L 73.317403 41.472 
" style="fill:none;stroke:#b0b0b0;stroke-linecap:square;stroke-width:0.8;"/>
     </g>
     <g id="line2d_2">
      <defs>
       <path d="M 0 0 
L 0 3.5 
" id="m893fbaaca9" style="stroke:#000000;stroke-width:0.8;"/>
      </defs>
      <g>
       <use style="stroke:#000000;stroke-width:0.8;" x="73.317403" xlink:href="#m893fbaaca9" y="307.584"/>
      </g>
     </g>
     <g id="text_1">
      <!-- 0 -->
      <defs>
       <path d="M 31.78125 66.40625 
Q 24.171875 66.40625 20.328125 58.90625 
Q 16.5 51.421875 16.5 36.375 
Q 16.5 21.390625 20.328125 13.890625 
Q 24.171875 6.390625 31.78125 6.390625 
Q 39.453125 6.390625 43.28125 13.890625 
Q 47.125 21.390625 47.125 36.375 
Q 47.125 51.421875 43.28125 58.90625 
Q 39.453125 66.40625 31.78125 66.40625 
z
M 31.78125 74.21875 
Q 44.046875 74.21875 50.515625 64.515625 
Q 56.984375 54.828125 56.984375 36.375 
Q 56.984375 17.96875 50.515625 8.265625 
Q 44.046875 -1.421875 31.78125 -1.421875 
Q 19.53125 -1.421875 13.0625 8.265625 
Q 6.59375 17.96875 6.59375 36.375 
Q 6.59375 54.828125 13.0625 64.515625 
Q 19.53125 74.21875 31.78125 74.21875 
z
" id="DejaVuSans-48"/>
      </defs>
      <g transform="translate(70.136153 322.182437)scale(0.1 -0.1)">
       <use xlink:href="#DejaVuSans-48"/>
      </g>
     </g>
    </g>
    <g id="xtick_2">
     <g id="line2d_3">
      <path clip-path="url(#p7e9df1920b)" d="M 124.84987 307.584 
L 124.84987 41.472 
" style="fill:none;stroke:#b0b0b0;stroke-linecap:square;stroke-width:0.8;"/>
     </g>
     <g id="line2d_4">
      <g>
       <use style="stroke:#000000;stroke-width:0.8;" x="124.84987" xlink:href="#m893fbaaca9" y="307.584"/>
      </g>
     </g>
     <g id="text_2">
      <!-- 100 -->
      <defs>
       <path d="M 12.40625 8.296875 
L 28.515625 8.296875 
L 28.515625 63.921875 
L 10.984375 60.40625 
L 10.984375 69.390625 
L 28.421875 72.90625 
L 38.28125 72.90625 
L 38.28125 8.296875 
L 54.390625 8.296875 
L 54.390625 0 
L 12.40625 0 
z
" id="DejaVuSans-49"/>
      </defs>
      <g transform="translate(115.30612 322.182437)scale(0.1 -0.1)">
       <use xlink:href="#DejaVuSans-49"/>
       <use x="63.623047" xlink:href="#DejaVuSans-48"/>
       <use x="127.246094" xlink:href="#DejaVuSans-48"/>
      </g>
     </g>
    </g>
    <g id="xtick_3">
     <g id="line2d_5">
      <path clip-path="url(#p7e9df1920b)" d="M 176.382338 307.584 
L 176.382338 41.472 
" style="fill:none;stroke:#b0b0b0;stroke-linecap:square;stroke-width:0.8;"/>
     </g>
     <g id="line2d_6">
      <g>
       <use style="stroke:#000000;stroke-width:0.8;" x="176.382338" xlink:href="#m893fbaaca9" y="307.584"/>
      </g>
     </g>
     <g id="text_3">
      <!-- 200 -->
      <defs>
       <path d="M 19.1875 8.296875 
L 53.609375 8.296875 
L 53.609375 0 
L 7.328125 0 
L 7.328125 8.296875 
Q 12.9375 14.109375 22.625 23.890625 
Q 32.328125 33.6875 34.8125 36.53125 
Q 39.546875 41.84375 41.421875 45.53125 
Q 43.3125 49.21875 43.3125 52.78125 
Q 43.3125 58.59375 39.234375 62.25 
Q 35.15625 65.921875 28.609375 65.921875 
Q 23.96875 65.921875 18.8125 64.3125 
Q 13.671875 62.703125 7.8125 59.421875 
L 7.8125 69.390625 
Q 13.765625 71.78125 18.9375 73 
Q 24.125 74.21875 28.421875 74.21875 
Q 39.75 74.21875 46.484375 68.546875 
Q 53.21875 62.890625 53.21875 53.421875 
Q 53.21875 48.921875 51.53125 44.890625 
Q 49.859375 40.875 45.40625 35.40625 
Q 44.1875 33.984375 37.640625 27.21875 
Q 31.109375 20.453125 19.1875 8.296875 
z
" id="DejaVuSans-50"/>
      </defs>
      <g transform="translate(166.838588 322.182437)scale(0.1 -0.1)">
       <use xlink:href="#DejaVuSans-50"/>
       <use x="63.623047" xlink:href="#DejaVuSans-48"/>
       <use x="127.246094" xlink:href="#DejaVuSans-48"/>
      </g>
     </g>
    </g>
    <g id="xtick_4">
     <g id="line2d_7">
      <path clip-path="url(#p7e9df1920b)" d="M 227.914805 307.584 
L 227.914805 41.472 
" style="fill:none;stroke:#b0b0b0;stroke-linecap:square;stroke-width:0.8;"/>
     </g>
     <g id="line2d_8">
      <g>
       <use style="stroke:#000000;stroke-width:0.8;" x="227.914805" xlink:href="#m893fbaaca9" y="307.584"/>
      </g>
     </g>
     <g id="text_4">
      <!-- 300 -->
      <defs>
       <path d="M 40.578125 39.3125 
Q 47.65625 37.796875 51.625 33 
Q 55.609375 28.21875 55.609375 21.1875 
Q 55.609375 10.40625 48.1875 4.484375 
Q 40.765625 -1.421875 27.09375 -1.421875 
Q 22.515625 -1.421875 17.65625 -0.515625 
Q 12.796875 0.390625 7.625 2.203125 
L 7.625 11.71875 
Q 11.71875 9.328125 16.59375 8.109375 
Q 21.484375 6.890625 26.8125 6.890625 
Q 36.078125 6.890625 40.9375 10.546875 
Q 45.796875 14.203125 45.796875 21.1875 
Q 45.796875 27.640625 41.28125 31.265625 
Q 36.765625 34.90625 28.71875 34.90625 
L 20.21875 34.90625 
L 20.21875 43.015625 
L 29.109375 43.015625 
Q 36.375 43.015625 40.234375 45.921875 
Q 44.09375 48.828125 44.09375 54.296875 
Q 44.09375 59.90625 40.109375 62.90625 
Q 36.140625 65.921875 28.71875 65.921875 
Q 24.65625 65.921875 20.015625 65.03125 
Q 15.375 64.15625 9.8125 62.3125 
L 9.8125 71.09375 
Q 15.4375 72.65625 20.34375 73.4375 
Q 25.25 74.21875 29.59375 74.21875 
Q 40.828125 74.21875 47.359375 69.109375 
Q 53.90625 64.015625 53.90625 55.328125 
Q 53.90625 49.265625 50.4375 45.09375 
Q 46.96875 40.921875 40.578125 39.3125 
z
" id="DejaVuSans-51"/>
      </defs>
      <g transform="translate(218.371055 322.182437)scale(0.1 -0.1)">
       <use xlink:href="#DejaVuSans-51"/>
       <use x="63.623047" xlink:href="#DejaVuSans-48"/>
       <use x="127.246094" xlink:href="#DejaVuSans-48"/>
      </g>
     </g>
    </g>
    <g id="xtick_5">
     <g id="line2d_9">
      <path clip-path="url(#p7e9df1920b)" d="M 279.447273 307.584 
L 279.447273 41.472 
" style="fill:none;stroke:#b0b0b0;stroke-linecap:square;stroke-width:0.8;"/>
     </g>
     <g id="line2d_10">
      <g>
       <use style="stroke:#000000;stroke-width:0.8;" x="279.447273" xlink:href="#m893fbaaca9" y="307.584"/>
      </g>
     </g>
     <g id="text_5">
      <!-- 400 -->
      <defs>
       <path d="M 37.796875 64.3125 
L 12.890625 25.390625 
L 37.796875 25.390625 
z
M 35.203125 72.90625 
L 47.609375 72.90625 
L 47.609375 25.390625 
L 58.015625 25.390625 
L 58.015625 17.1875 
L 47.609375 17.1875 
L 47.609375 0 
L 37.796875 0 
L 37.796875 17.1875 
L 4.890625 17.1875 
L 4.890625 26.703125 
z
" id="DejaVuSans-52"/>
      </defs>
      <g transform="translate(269.903523 322.182437)scale(0.1 -0.1)">
       <use xlink:href="#DejaVuSans-52"/>
       <use x="63.623047" xlink:href="#DejaVuSans-48"/>
       <use x="127.246094" xlink:href="#DejaVuSans-48"/>
      </g>
     </g>
    </g>
    <g id="xtick_6">
     <g id="line2d_11">
      <path clip-path="url(#p7e9df1920b)" d="M 330.97974 307.584 
L 330.97974 41.472 
" style="fill:none;stroke:#b0b0b0;stroke-linecap:square;stroke-width:0.8;"/>
     </g>
     <g id="line2d_12">
      <g>
       <use style="stroke:#000000;stroke-width:0.8;" x="330.97974" xlink:href="#m893fbaaca9" y="307.584"/>
      </g>
     </g>
     <g id="text_6">
      <!-- 500 -->
      <defs>
       <path d="M 10.796875 72.90625 
L 49.515625 72.90625 
L 49.515625 64.59375 
L 19.828125 64.59375 
L 19.828125 46.734375 
Q 21.96875 47.46875 24.109375 47.828125 
Q 26.265625 48.1875 28.421875 48.1875 
Q 40.625 48.1875 47.75 41.5 
Q 54.890625 34.8125 54.890625 23.390625 
Q 54.890625 11.625 47.5625 5.09375 
Q 40.234375 -1.421875 26.90625 -1.421875 
Q 22.3125 -1.421875 17.546875 -0.640625 
Q 12.796875 0.140625 7.71875 1.703125 
L 7.71875 11.625 
Q 12.109375 9.234375 16.796875 8.0625 
Q 21.484375 6.890625 26.703125 6.890625 
Q 35.15625 6.890625 40.078125 11.328125 
Q 45.015625 15.765625 45.015625 23.390625 
Q 45.015625 31 40.078125 35.4375 
Q 35.15625 39.890625 26.703125 39.890625 
Q 22.75 39.890625 18.8125 39.015625 
Q 14.890625 38.140625 10.796875 36.28125 
z
" id="DejaVuSans-53"/>
      </defs>
      <g transform="translate(321.43599 322.182437)scale(0.1 -0.1)">
       <use xlink:href="#DejaVuSans-53"/>
       <use x="63.623047" xlink:href="#DejaVuSans-48"/>
       <use x="127.246094" xlink:href="#DejaVuSans-48"/>
      </g>
     </g>
    </g>
    <g id="xtick_7">
     <g id="line2d_13">
      <path clip-path="url(#p7e9df1920b)" d="M 382.512208 307.584 
L 382.512208 41.472 
" style="fill:none;stroke:#b0b0b0;stroke-linecap:square;stroke-width:0.8;"/>
     </g>
     <g id="line2d_14">
      <g>
       <use style="stroke:#000000;stroke-width:0.8;" x="382.512208" xlink:href="#m893fbaaca9" y="307.584"/>
      </g>
     </g>
     <g id="text_7">
      <!-- 600 -->
      <defs>
       <path d="M 33.015625 40.375 
Q 26.375 40.375 22.484375 35.828125 
Q 18.609375 31.296875 18.609375 23.390625 
Q 18.609375 15.53125 22.484375 10.953125 
Q 26.375 6.390625 33.015625 6.390625 
Q 39.65625 6.390625 43.53125 10.953125 
Q 47.40625 15.53125 47.40625 23.390625 
Q 47.40625 31.296875 43.53125 35.828125 
Q 39.65625 40.375 33.015625 40.375 
z
M 52.59375 71.296875 
L 52.59375 62.3125 
Q 48.875 64.0625 45.09375 64.984375 
Q 41.3125 65.921875 37.59375 65.921875 
Q 27.828125 65.921875 22.671875 59.328125 
Q 17.53125 52.734375 16.796875 39.40625 
Q 19.671875 43.65625 24.015625 45.921875 
Q 28.375 48.1875 33.59375 48.1875 
Q 44.578125 48.1875 50.953125 41.515625 
Q 57.328125 34.859375 57.328125 23.390625 
Q 57.328125 12.15625 50.6875 5.359375 
Q 44.046875 -1.421875 33.015625 -1.421875 
Q 20.359375 -1.421875 13.671875 8.265625 
Q 6.984375 17.96875 6.984375 36.375 
Q 6.984375 53.65625 15.1875 63.9375 
Q 23.390625 74.21875 37.203125 74.21875 
Q 40.921875 74.21875 44.703125 73.484375 
Q 48.484375 72.75 52.59375 71.296875 
z
" id="DejaVuSans-54"/>
      </defs>
      <g transform="translate(372.968458 322.182437)scale(0.1 -0.1)">
       <use xlink:href="#DejaVuSans-54"/>
       <use x="63.623047" xlink:href="#DejaVuSans-48"/>
       <use x="127.246094" xlink:href="#DejaVuSans-48"/>
      </g>
     </g>
    </g>
   </g>
   <g id="matplotlib.axis_2">
    <g id="ytick_1">
     <g id="line2d_15">
      <path clip-path="url(#p7e9df1920b)" d="M 57.6 295.488 
L 414.72 295.488 
" style="fill:none;stroke:#b0b0b0;stroke-linecap:square;stroke-width:0.8;"/>
     </g>
     <g id="line2d_16">
      <defs>
       <path d="M 0 0 
L -3.5 0 
" id="m9caad468bf" style="stroke:#000000;stroke-width:0.8;"/>
      </defs>
      <g>
       <use style="stroke:#000000;stroke-width:0.8;" x="57.6" xlink:href="#m9caad468bf" y="295.488"/>
      </g>
     </g>
     <g id="text_8">
      <!-- $\mathdefault{10^{0}}$ -->
      <g transform="translate(33 299.287219)scale(0.1 -0.1)">
       <use transform="translate(0 0.765625)" xlink:href="#DejaVuSans-49"/>
       <use transform="translate(63.623047 0.765625)" xlink:href="#DejaVuSans-48"/>
       <use transform="translate(128.203125 39.046875)scale(0.7)" xlink:href="#DejaVuSans-48"/>
      </g>
     </g>
    </g>
    <g id="ytick_2">
     <g id="line2d_17">
      <path clip-path="url(#p7e9df1920b)" d="M 57.6 242.220625 
L 414.72 242.220625 
" style="fill:none;stroke:#b0b0b0;stroke-linecap:square;stroke-width:0.8;"/>
     </g>
     <g id="line2d_18">
      <g>
       <use style="stroke:#000000;stroke-width:0.8;" x="57.6" xlink:href="#m9caad468bf" y="242.220625"/>
      </g>
     </g>
     <g id="text_9">
      <!-- $\mathdefault{10^{1}}$ -->
      <g transform="translate(33 246.019844)scale(0.1 -0.1)">
       <use transform="translate(0 0.684375)" xlink:href="#DejaVuSans-49"/>
       <use transform="translate(63.623047 0.684375)" xlink:href="#DejaVuSans-48"/>
       <use transform="translate(128.203125 38.965625)scale(0.7)" xlink:href="#DejaVuSans-49"/>
      </g>
     </g>
    </g>
    <g id="ytick_3">
     <g id="line2d_19">
      <path clip-path="url(#p7e9df1920b)" d="M 57.6 188.95325 
L 414.72 188.95325 
" style="fill:none;stroke:#b0b0b0;stroke-linecap:square;stroke-width:0.8;"/>
     </g>
     <g id="line2d_20">
      <g>
       <use style="stroke:#000000;stroke-width:0.8;" x="57.6" xlink:href="#m9caad468bf" y="188.95325"/>
      </g>
     </g>
     <g id="text_10">
      <!-- $\mathdefault{10^{2}}$ -->
      <g transform="translate(33 192.752468)scale(0.1 -0.1)">
       <use transform="translate(0 0.765625)" xlink:href="#DejaVuSans-49"/>
       <use transform="translate(63.623047 0.765625)" xlink:href="#DejaVuSans-48"/>
       <use transform="translate(128.203125 39.046875)scale(0.7)" xlink:href="#DejaVuSans-50"/>
      </g>
     </g>
    </g>
    <g id="ytick_4">
     <g id="line2d_21">
      <path clip-path="url(#p7e9df1920b)" d="M 57.6 135.685874 
L 414.72 135.685874 
" style="fill:none;stroke:#b0b0b0;stroke-linecap:square;stroke-width:0.8;"/>
     </g>
     <g id="line2d_22">
      <g>
       <use style="stroke:#000000;stroke-width:0.8;" x="57.6" xlink:href="#m9caad468bf" y="135.685874"/>
      </g>
     </g>
     <g id="text_11">
      <!-- $\mathdefault{10^{3}}$ -->
      <g transform="translate(33 139.485093)scale(0.1 -0.1)">
       <use transform="translate(0 0.765625)" xlink:href="#DejaVuSans-49"/>
       <use transform="translate(63.623047 0.765625)" xlink:href="#DejaVuSans-48"/>
       <use transform="translate(128.203125 39.046875)scale(0.7)" xlink:href="#DejaVuSans-51"/>
      </g>
     </g>
    </g>
    <g id="ytick_5">
     <g id="line2d_23">
      <path clip-path="url(#p7e9df1920b)" d="M 57.6 82.418499 
L 414.72 82.418499 
" style="fill:none;stroke:#b0b0b0;stroke-linecap:square;stroke-width:0.8;"/>
     </g>
     <g id="line2d_24">
      <g>
       <use style="stroke:#000000;stroke-width:0.8;" x="57.6" xlink:href="#m9caad468bf" y="82.418499"/>
      </g>
     </g>
     <g id="text_12">
      <!-- $\mathdefault{10^{4}}$ -->
      <g transform="translate(33 86.217718)scale(0.1 -0.1)">
       <use transform="translate(0 0.684375)" xlink:href="#DejaVuSans-49"/>
       <use transform="translate(63.623047 0.684375)" xlink:href="#DejaVuSans-48"/>
       <use transform="translate(128.203125 38.965625)scale(0.7)" xlink:href="#DejaVuSans-52"/>
      </g>
     </g>
    </g>
    <g id="ytick_6">
     <g id="line2d_25">
      <defs>
       <path d="M 0 0 
L -2 0 
" id="m966b8185da" style="stroke:#000000;stroke-width:0.6;"/>
      </defs>
      <g>
       <use style="stroke:#000000;stroke-width:0.6;" x="57.6" xlink:href="#m966b8185da" y="307.305301"/>
      </g>
     </g>
    </g>
    <g id="ytick_7">
     <g id="line2d_26">
      <g>
       <use style="stroke:#000000;stroke-width:0.6;" x="57.6" xlink:href="#m966b8185da" y="303.739221"/>
      </g>
     </g>
    </g>
    <g id="ytick_8">
     <g id="line2d_27">
      <g>
       <use style="stroke:#000000;stroke-width:0.6;" x="57.6" xlink:href="#m966b8185da" y="300.650142"/>
      </g>
     </g>
    </g>
    <g id="ytick_9">
     <g id="line2d_28">
      <g>
       <use style="stroke:#000000;stroke-width:0.6;" x="57.6" xlink:href="#m966b8185da" y="297.925381"/>
      </g>
     </g>
    </g>
    <g id="ytick_10">
     <g id="line2d_29">
      <g>
       <use style="stroke:#000000;stroke-width:0.6;" x="57.6" xlink:href="#m966b8185da" y="279.452922"/>
      </g>
     </g>
    </g>
    <g id="ytick_11">
     <g id="line2d_30">
      <g>
       <use style="stroke:#000000;stroke-width:0.6;" x="57.6" xlink:href="#m966b8185da" y="270.073003"/>
      </g>
     </g>
    </g>
    <g id="ytick_12">
     <g id="line2d_31">
      <g>
       <use style="stroke:#000000;stroke-width:0.6;" x="57.6" xlink:href="#m966b8185da" y="263.417845"/>
      </g>
     </g>
    </g>
    <g id="ytick_13">
     <g id="line2d_32">
      <g>
       <use style="stroke:#000000;stroke-width:0.6;" x="57.6" xlink:href="#m966b8185da" y="258.255702"/>
      </g>
     </g>
    </g>
    <g id="ytick_14">
     <g id="line2d_33">
      <g>
       <use style="stroke:#000000;stroke-width:0.6;" x="57.6" xlink:href="#m966b8185da" y="254.037925"/>
      </g>
     </g>
    </g>
    <g id="ytick_15">
     <g id="line2d_34">
      <g>
       <use style="stroke:#000000;stroke-width:0.6;" x="57.6" xlink:href="#m966b8185da" y="250.471846"/>
      </g>
     </g>
    </g>
    <g id="ytick_16">
     <g id="line2d_35">
      <g>
       <use style="stroke:#000000;stroke-width:0.6;" x="57.6" xlink:href="#m966b8185da" y="247.382767"/>
      </g>
     </g>
    </g>
    <g id="ytick_17">
     <g id="line2d_36">
      <g>
       <use style="stroke:#000000;stroke-width:0.6;" x="57.6" xlink:href="#m966b8185da" y="244.658006"/>
      </g>
     </g>
    </g>
    <g id="ytick_18">
     <g id="line2d_37">
      <g>
       <use style="stroke:#000000;stroke-width:0.6;" x="57.6" xlink:href="#m966b8185da" y="226.185547"/>
      </g>
     </g>
    </g>
    <g id="ytick_19">
     <g id="line2d_38">
      <g>
       <use style="stroke:#000000;stroke-width:0.6;" x="57.6" xlink:href="#m966b8185da" y="216.805628"/>
      </g>
     </g>
    </g>
    <g id="ytick_20">
     <g id="line2d_39">
      <g>
       <use style="stroke:#000000;stroke-width:0.6;" x="57.6" xlink:href="#m966b8185da" y="210.150469"/>
      </g>
     </g>
    </g>
    <g id="ytick_21">
     <g id="line2d_40">
      <g>
       <use style="stroke:#000000;stroke-width:0.6;" x="57.6" xlink:href="#m966b8185da" y="204.988327"/>
      </g>
     </g>
    </g>
    <g id="ytick_22">
     <g id="line2d_41">
      <g>
       <use style="stroke:#000000;stroke-width:0.6;" x="57.6" xlink:href="#m966b8185da" y="200.77055"/>
      </g>
     </g>
    </g>
    <g id="ytick_23">
     <g id="line2d_42">
      <g>
       <use style="stroke:#000000;stroke-width:0.6;" x="57.6" xlink:href="#m966b8185da" y="197.20447"/>
      </g>
     </g>
    </g>
    <g id="ytick_24">
     <g id="line2d_43">
      <g>
       <use style="stroke:#000000;stroke-width:0.6;" x="57.6" xlink:href="#m966b8185da" y="194.115392"/>
      </g>
     </g>
    </g>
    <g id="ytick_25">
     <g id="line2d_44">
      <g>
       <use style="stroke:#000000;stroke-width:0.6;" x="57.6" xlink:href="#m966b8185da" y="191.390631"/>
      </g>
     </g>
    </g>
    <g id="ytick_26">
     <g id="line2d_45">
      <g>
       <use style="stroke:#000000;stroke-width:0.6;" x="57.6" xlink:href="#m966b8185da" y="172.918172"/>
      </g>
     </g>
    </g>
    <g id="ytick_27">
     <g id="line2d_46">
      <g>
       <use style="stroke:#000000;stroke-width:0.6;" x="57.6" xlink:href="#m966b8185da" y="163.538253"/>
      </g>
     </g>
    </g>
    <g id="ytick_28">
     <g id="line2d_47">
      <g>
       <use style="stroke:#000000;stroke-width:0.6;" x="57.6" xlink:href="#m966b8185da" y="156.883094"/>
      </g>
     </g>
    </g>
    <g id="ytick_29">
     <g id="line2d_48">
      <g>
       <use style="stroke:#000000;stroke-width:0.6;" x="57.6" xlink:href="#m966b8185da" y="151.720952"/>
      </g>
     </g>
    </g>
    <g id="ytick_30">
     <g id="line2d_49">
      <g>
       <use style="stroke:#000000;stroke-width:0.6;" x="57.6" xlink:href="#m966b8185da" y="147.503175"/>
      </g>
     </g>
    </g>
    <g id="ytick_31">
     <g id="line2d_50">
      <g>
       <use style="stroke:#000000;stroke-width:0.6;" x="57.6" xlink:href="#m966b8185da" y="143.937095"/>
      </g>
     </g>
    </g>
    <g id="ytick_32">
     <g id="line2d_51">
      <g>
       <use style="stroke:#000000;stroke-width:0.6;" x="57.6" xlink:href="#m966b8185da" y="140.848016"/>
      </g>
     </g>
    </g>
    <g id="ytick_33">
     <g id="line2d_52">
      <g>
       <use style="stroke:#000000;stroke-width:0.6;" x="57.6" xlink:href="#m966b8185da" y="138.123256"/>
      </g>
     </g>
    </g>
    <g id="ytick_34">
     <g id="line2d_53">
      <g>
       <use style="stroke:#000000;stroke-width:0.6;" x="57.6" xlink:href="#m966b8185da" y="119.650797"/>
      </g>
     </g>
    </g>
    <g id="ytick_35">
     <g id="line2d_54">
      <g>
       <use style="stroke:#000000;stroke-width:0.6;" x="57.6" xlink:href="#m966b8185da" y="110.270877"/>
      </g>
     </g>
    </g>
    <g id="ytick_36">
     <g id="line2d_55">
      <g>
       <use style="stroke:#000000;stroke-width:0.6;" x="57.6" xlink:href="#m966b8185da" y="103.615719"/>
      </g>
     </g>
    </g>
    <g id="ytick_37">
     <g id="line2d_56">
      <g>
       <use style="stroke:#000000;stroke-width:0.6;" x="57.6" xlink:href="#m966b8185da" y="98.453577"/>
      </g>
     </g>
    </g>
    <g id="ytick_38">
     <g id="line2d_57">
      <g>
       <use style="stroke:#000000;stroke-width:0.6;" x="57.6" xlink:href="#m966b8185da" y="94.2358"/>
      </g>
     </g>
    </g>
    <g id="ytick_39">
     <g id="line2d_58">
      <g>
       <use style="stroke:#000000;stroke-width:0.6;" x="57.6" xlink:href="#m966b8185da" y="90.66972"/>
      </g>
     </g>
    </g>
    <g id="ytick_40">
     <g id="line2d_59">
      <g>
       <use style="stroke:#000000;stroke-width:0.6;" x="57.6" xlink:href="#m966b8185da" y="87.580641"/>
      </g>
     </g>
    </g>
    <g id="ytick_41">
     <g id="line2d_60">
      <g>
       <use style="stroke:#000000;stroke-width:0.6;" x="57.6" xlink:href="#m966b8185da" y="84.85588"/>
      </g>
     </g>
    </g>
    <g id="ytick_42">
     <g id="line2d_61">
      <g>
       <use style="stroke:#000000;stroke-width:0.6;" x="57.6" xlink:href="#m966b8185da" y="66.383421"/>
      </g>
     </g>
    </g>
    <g id="ytick_43">
     <g id="line2d_62">
      <g>
       <use style="stroke:#000000;stroke-width:0.6;" x="57.6" xlink:href="#m966b8185da" y="57.003502"/>
      </g>
     </g>
    </g>
    <g id="ytick_44">
     <g id="line2d_63">
      <g>
       <use style="stroke:#000000;stroke-width:0.6;" x="57.6" xlink:href="#m966b8185da" y="50.348344"/>
      </g>
     </g>
    </g>
    <g id="ytick_45">
     <g id="line2d_64">
      <g>
       <use style="stroke:#000000;stroke-width:0.6;" x="57.6" xlink:href="#m966b8185da" y="45.186202"/>
      </g>
     </g>
    </g>
   </g>
   <g id="patch_259">
    <path d="M 57.6 307.584 
L 57.6 41.472 
" style="fill:none;stroke:#000000;stroke-linecap:square;stroke-linejoin:miter;stroke-width:0.8;"/>
   </g>
   <g id="patch_260">
    <path d="M 414.72 307.584 
L 414.72 41.472 
" style="fill:none;stroke:#000000;stroke-linecap:square;stroke-linejoin:miter;stroke-width:0.8;"/>
   </g>
   <g id="patch_261">
    <path d="M 57.6 307.584 
L 414.72 307.584 
" style="fill:none;stroke:#000000;stroke-linecap:square;stroke-linejoin:miter;stroke-width:0.8;"/>
   </g>
   <g id="patch_262">
    <path d="M 57.6 41.472 
L 414.72 41.472 
" style="fill:none;stroke:#000000;stroke-linecap:square;stroke-linejoin:miter;stroke-width:0.8;"/>
   </g>
  </g>
 </g>
 <defs>
  <clipPath id="p7e9df1920b">
   <rect height="266.112" width="357.12" x="57.6" y="41.472"/>
  </clipPath>
 </defs>
</svg>
