<?xml version="1.0" encoding="utf-8" standalone="no"?>
<!DOCTYPE svg PUBLIC "-//W3C//DTD SVG 1.1//EN"
  "http://www.w3.org/Graphics/SVG/1.1/DTD/svg11.dtd">
<!-- Created with matplotlib (https://matplotlib.org/) -->
<svg height="345.6pt" version="1.1" viewBox="0 0 460.8 345.6" width="460.8pt" xmlns="http://www.w3.org/2000/svg" xmlns:xlink="http://www.w3.org/1999/xlink">
 <defs>
  <style type="text/css">
*{stroke-linecap:butt;stroke-linejoin:round;}
  </style>
 </defs>
 <g id="figure_1">
  <g id="patch_1">
   <path d="M 0 345.6 
L 460.8 345.6 
L 460.8 0 
L 0 0 
z
" style="fill:#ffffff;"/>
  </g>
  <g id="axes_1">
   <g id="patch_2">
    <path d="M 57.6 307.584 
L 414.72 307.584 
L 414.72 41.472 
L 57.6 41.472 
z
" style="fill:#ffffff;"/>
   </g>
   <g id="patch_3">
    <path clip-path="url(#pb135466e2d)" d="M 73.832727 55569.720516 
L 75.100909 55569.720516 
L 75.100909 53.568 
L 73.832727 53.568 
z
" style="fill:#1f77b4;"/>
   </g>
   <g id="patch_4">
    <path clip-path="url(#pb135466e2d)" d="M 75.100909 55569.720516 
L 76.369091 55569.720516 
L 76.369091 64.047839 
L 75.100909 64.047839 
z
" style="fill:#1f77b4;"/>
   </g>
   <g id="patch_5">
    <path clip-path="url(#pb135466e2d)" d="M 76.369091 55569.720516 
L 77.637273 55569.720516 
L 77.637273 71.044395 
L 76.369091 71.044395 
z
" style="fill:#1f77b4;"/>
   </g>
   <g id="patch_6">
    <path clip-path="url(#pb135466e2d)" d="M 77.637273 55569.720516 
L 78.905455 55569.720516 
L 78.905455 82.104158 
L 77.637273 82.104158 
z
" style="fill:#1f77b4;"/>
   </g>
   <g id="patch_7">
    <path clip-path="url(#pb135466e2d)" d="M 78.905455 55569.720516 
L 80.173636 55569.720516 
L 80.173636 90.540787 
L 78.905455 90.540787 
z
" style="fill:#1f77b4;"/>
   </g>
   <g id="patch_8">
    <path clip-path="url(#pb135466e2d)" d="M 80.173636 55569.720516 
L 81.441818 55569.720516 
L 81.441818 99.640418 
L 80.173636 99.640418 
z
" style="fill:#1f77b4;"/>
   </g>
   <g id="patch_9">
    <path clip-path="url(#pb135466e2d)" d="M 81.441818 55569.720516 
L 82.71 55569.720516 
L 82.71 99.661044 
L 81.441818 99.661044 
z
" style="fill:#1f77b4;"/>
   </g>
   <g id="patch_10">
    <path clip-path="url(#pb135466e2d)" d="M 82.71 55569.720516 
L 83.978182 55569.720516 
L 83.978182 119.740715 
L 82.71 119.740715 
z
" style="fill:#1f77b4;"/>
   </g>
   <g id="patch_11">
    <path clip-path="url(#pb135466e2d)" d="M 83.978182 55569.720516 
L 85.246364 55569.720516 
L 85.246364 126.37298 
L 83.978182 126.37298 
z
" style="fill:#1f77b4;"/>
   </g>
   <g id="patch_12">
    <path clip-path="url(#pb135466e2d)" d="M 85.246364 55569.720516 
L 86.514545 55569.720516 
L 86.514545 132.141227 
L 85.246364 132.141227 
z
" style="fill:#1f77b4;"/>
   </g>
   <g id="patch_13">
    <path clip-path="url(#pb135466e2d)" d="M 86.514545 55569.720516 
L 87.782727 55569.720516 
L 87.782727 138.090607 
L 86.514545 138.090607 
z
" style="fill:#1f77b4;"/>
   </g>
   <g id="patch_14">
    <path clip-path="url(#pb135466e2d)" d="M 87.782727 55569.720516 
L 89.050909 55569.720516 
L 89.050909 143.972949 
L 87.782727 143.972949 
z
" style="fill:#1f77b4;"/>
   </g>
   <g id="patch_15">
    <path clip-path="url(#pb135466e2d)" d="M 89.050909 55569.720516 
L 90.319091 55569.720516 
L 90.319091 141.102005 
L 89.050909 141.102005 
z
" style="fill:#1f77b4;"/>
   </g>
   <g id="patch_16">
    <path clip-path="url(#pb135466e2d)" d="M 90.319091 55569.720516 
L 91.587273 55569.720516 
L 91.587273 155.073238 
L 90.319091 155.073238 
z
" style="fill:#1f77b4;"/>
   </g>
   <g id="patch_17">
    <path clip-path="url(#pb135466e2d)" d="M 91.587273 55569.720516 
L 92.855455 55569.720516 
L 92.855455 158.889247 
L 91.587273 158.889247 
z
" style="fill:#1f77b4;"/>
   </g>
   <g id="patch_18">
    <path clip-path="url(#pb135466e2d)" d="M 92.855455 55569.720516 
L 94.123636 55569.720516 
L 94.123636 164.945306 
L 92.855455 164.945306 
z
" style="fill:#1f77b4;"/>
   </g>
   <g id="patch_19">
    <path clip-path="url(#pb135466e2d)" d="M 94.123636 55569.720516 
L 95.391818 55569.720516 
L 95.391818 164.945306 
L 94.123636 164.945306 
z
" style="fill:#1f77b4;"/>
   </g>
   <g id="patch_20">
    <path clip-path="url(#pb135466e2d)" d="M 95.391818 55569.720516 
L 96.66 55569.720516 
L 96.66 173.507393 
L 95.391818 173.507393 
z
" style="fill:#1f77b4;"/>
   </g>
   <g id="patch_21">
    <path clip-path="url(#pb135466e2d)" d="M 96.66 55569.720516 
L 97.928182 55569.720516 
L 97.928182 167.358828 
L 96.66 167.358828 
z
" style="fill:#1f77b4;"/>
   </g>
   <g id="patch_22">
    <path clip-path="url(#pb135466e2d)" d="M 97.928182 55569.720516 
L 99.196364 55569.720516 
L 99.196364 180.966312 
L 97.928182 180.966312 
z
" style="fill:#1f77b4;"/>
   </g>
   <g id="patch_23">
    <path clip-path="url(#pb135466e2d)" d="M 99.196364 55569.720516 
L 100.464545 55569.720516 
L 100.464545 183.092063 
L 99.196364 183.092063 
z
" style="fill:#1f77b4;"/>
   </g>
   <g id="patch_24">
    <path clip-path="url(#pb135466e2d)" d="M 100.464545 55569.720516 
L 101.732727 55569.720516 
L 101.732727 185.180796 
L 100.464545 185.180796 
z
" style="fill:#1f77b4;"/>
   </g>
   <g id="patch_25">
    <path clip-path="url(#pb135466e2d)" d="M 101.732727 55569.720516 
L 103.000909 55569.720516 
L 103.000909 189.412431 
L 101.732727 189.412431 
z
" style="fill:#1f77b4;"/>
   </g>
   <g id="patch_26">
    <path clip-path="url(#pb135466e2d)" d="M 103.000909 55569.720516 
L 104.269091 55569.720516 
L 104.269091 182.870814 
L 103.000909 182.870814 
z
" style="fill:#1f77b4;"/>
   </g>
   <g id="patch_27">
    <path clip-path="url(#pb135466e2d)" d="M 104.269091 55569.720516 
L 105.537273 55569.720516 
L 105.537273 176.020042 
L 104.269091 176.020042 
z
" style="fill:#1f77b4;"/>
   </g>
   <g id="patch_28">
    <path clip-path="url(#pb135466e2d)" d="M 105.537273 55569.720516 
L 106.805455 55569.720516 
L 106.805455 190.903923 
L 105.537273 190.903923 
z
" style="fill:#1f77b4;"/>
   </g>
   <g id="patch_29">
    <path clip-path="url(#pb135466e2d)" d="M 106.805455 55569.720516 
L 108.073636 55569.720516 
L 108.073636 188.84085 
L 106.805455 188.84085 
z
" style="fill:#1f77b4;"/>
   </g>
   <g id="patch_30">
    <path clip-path="url(#pb135466e2d)" d="M 108.073636 55569.720516 
L 109.341818 55569.720516 
L 109.341818 188.84085 
L 108.073636 188.84085 
z
" style="fill:#1f77b4;"/>
   </g>
   <g id="patch_31">
    <path clip-path="url(#pb135466e2d)" d="M 109.341818 55569.720516 
L 110.61 55569.720516 
L 110.61 198.015871 
L 109.341818 198.015871 
z
" style="fill:#1f77b4;"/>
   </g>
   <g id="patch_32">
    <path clip-path="url(#pb135466e2d)" d="M 110.61 55569.720516 
L 111.878182 55569.720516 
L 111.878182 204.647415 
L 110.61 204.647415 
z
" style="fill:#1f77b4;"/>
   </g>
   <g id="patch_33">
    <path clip-path="url(#pb135466e2d)" d="M 111.878182 55569.720516 
L 113.146364 55569.720516 
L 113.146364 210.836678 
L 111.878182 210.836678 
z
" style="fill:#1f77b4;"/>
   </g>
   <g id="patch_34">
    <path clip-path="url(#pb135466e2d)" d="M 113.146364 55569.720516 
L 114.414545 55569.720516 
L 114.414545 209.464574 
L 113.146364 209.464574 
z
" style="fill:#1f77b4;"/>
   </g>
   <g id="patch_35">
    <path clip-path="url(#pb135466e2d)" d="M 114.414545 55569.720516 
L 115.682727 55569.720516 
L 115.682727 221.286617 
L 114.414545 221.286617 
z
" style="fill:#1f77b4;"/>
   </g>
   <g id="patch_36">
    <path clip-path="url(#pb135466e2d)" d="M 115.682727 55569.720516 
L 116.950909 55569.720516 
L 116.950909 224.805876 
L 115.682727 224.805876 
z
" style="fill:#1f77b4;"/>
   </g>
   <g id="patch_37">
    <path clip-path="url(#pb135466e2d)" d="M 116.950909 55569.720516 
L 118.219091 55569.720516 
L 118.219091 228.931192 
L 116.950909 228.931192 
z
" style="fill:#1f77b4;"/>
   </g>
   <g id="patch_38">
    <path clip-path="url(#pb135466e2d)" d="M 118.219091 55569.720516 
L 119.487273 55569.720516 
L 119.487273 240.213767 
L 118.219091 240.213767 
z
" style="fill:#1f77b4;"/>
   </g>
   <g id="patch_39">
    <path clip-path="url(#pb135466e2d)" d="M 119.487273 55569.720516 
L 120.755455 55569.720516 
L 120.755455 235.837085 
L 119.487273 235.837085 
z
" style="fill:#1f77b4;"/>
   </g>
   <g id="patch_40">
    <path clip-path="url(#pb135466e2d)" d="M 120.755455 55569.720516 
L 122.023636 55569.720516 
L 122.023636 227.47588 
L 120.755455 227.47588 
z
" style="fill:#1f77b4;"/>
   </g>
   <g id="patch_41">
    <path clip-path="url(#pb135466e2d)" d="M 122.023636 55569.720516 
L 123.291818 55569.720516 
L 123.291818 235.837085 
L 122.023636 235.837085 
z
" style="fill:#1f77b4;"/>
   </g>
   <g id="patch_42">
    <path clip-path="url(#pb135466e2d)" d="M 123.291818 55569.720516 
L 124.56 55569.720516 
L 124.56 230.480458 
L 123.291818 230.480458 
z
" style="fill:#1f77b4;"/>
   </g>
   <g id="patch_43">
    <path clip-path="url(#pb135466e2d)" d="M 124.56 55569.720516 
L 125.828182 55569.720516 
L 125.828182 232.136652 
L 124.56 232.136652 
z
" style="fill:#1f77b4;"/>
   </g>
   <g id="patch_44">
    <path clip-path="url(#pb135466e2d)" d="M 125.828182 55569.720516 
L 127.096364 55569.720516 
L 127.096364 233.915636 
L 125.828182 233.915636 
z
" style="fill:#1f77b4;"/>
   </g>
   <g id="patch_45">
    <path clip-path="url(#pb135466e2d)" d="M 127.096364 55569.720516 
L 128.364545 55569.720516 
L 128.364545 242.742978 
L 127.096364 242.742978 
z
" style="fill:#1f77b4;"/>
   </g>
   <g id="patch_46">
    <path clip-path="url(#pb135466e2d)" d="M 128.364545 55569.720516 
L 129.632727 55569.720516 
L 129.632727 237.925819 
L 128.364545 237.925819 
z
" style="fill:#1f77b4;"/>
   </g>
   <g id="patch_47">
    <path clip-path="url(#pb135466e2d)" d="M 129.632727 55569.720516 
L 130.900909 55569.720516 
L 130.900909 252.476287 
L 129.632727 252.476287 
z
" style="fill:#1f77b4;"/>
   </g>
   <g id="patch_48">
    <path clip-path="url(#pb135466e2d)" d="M 130.900909 55569.720516 
L 132.169091 55569.720516 
L 132.169091 248.775854 
L 130.900909 248.775854 
z
" style="fill:#1f77b4;"/>
   </g>
   <g id="patch_49">
    <path clip-path="url(#pb135466e2d)" d="M 132.169091 55569.720516 
L 133.437273 55569.720516 
L 133.437273 245.570394 
L 132.169091 245.570394 
z
" style="fill:#1f77b4;"/>
   </g>
   <g id="patch_50">
    <path clip-path="url(#pb135466e2d)" d="M 133.437273 55569.720516 
L 134.705455 55569.720516 
L 134.705455 256.852969 
L 133.437273 256.852969 
z
" style="fill:#1f77b4;"/>
   </g>
   <g id="patch_51">
    <path clip-path="url(#pb135466e2d)" d="M 134.705455 55569.720516 
L 135.973636 55569.720516 
L 135.973636 240.213767 
L 134.705455 240.213767 
z
" style="fill:#1f77b4;"/>
   </g>
   <g id="patch_52">
    <path clip-path="url(#pb135466e2d)" d="M 135.973636 55569.720516 
L 137.241818 55569.720516 
L 137.241818 256.852969 
L 135.973636 256.852969 
z
" style="fill:#1f77b4;"/>
   </g>
   <g id="patch_53">
    <path clip-path="url(#pb135466e2d)" d="M 137.241818 55569.720516 
L 138.51 55569.720516 
L 138.51 245.570394 
L 137.241818 245.570394 
z
" style="fill:#1f77b4;"/>
   </g>
   <g id="patch_54">
    <path clip-path="url(#pb135466e2d)" d="M 138.51 55569.720516 
L 139.778182 55569.720516 
L 139.778182 248.775854 
L 138.51 248.775854 
z
" style="fill:#1f77b4;"/>
   </g>
   <g id="patch_55">
    <path clip-path="url(#pb135466e2d)" d="M 139.778182 55569.720516 
L 141.046364 55569.720516 
L 141.046364 252.476287 
L 139.778182 252.476287 
z
" style="fill:#1f77b4;"/>
   </g>
   <g id="patch_56">
    <path clip-path="url(#pb135466e2d)" d="M 141.046364 55569.720516 
L 142.314545 55569.720516 
L 142.314545 269.115489 
L 141.046364 269.115489 
z
" style="fill:#1f77b4;"/>
   </g>
   <g id="patch_57">
    <path clip-path="url(#pb135466e2d)" d="M 142.314545 55569.720516 
L 143.582727 55569.720516 
L 143.582727 256.852969 
L 142.314545 256.852969 
z
" style="fill:#1f77b4;"/>
   </g>
   <g id="patch_58">
    <path clip-path="url(#pb135466e2d)" d="M 143.582727 55569.720516 
L 144.850909 55569.720516 
L 144.850909 256.852969 
L 143.582727 256.852969 
z
" style="fill:#1f77b4;"/>
   </g>
   <g id="patch_59">
    <path clip-path="url(#pb135466e2d)" d="M 144.850909 55569.720516 
L 146.119091 55569.720516 
L 146.119091 248.775854 
L 144.850909 248.775854 
z
" style="fill:#1f77b4;"/>
   </g>
   <g id="patch_60">
    <path clip-path="url(#pb135466e2d)" d="M 146.119091 55569.720516 
L 147.387273 55569.720516 
L 147.387273 278.848798 
L 146.119091 278.848798 
z
" style="fill:#1f77b4;"/>
   </g>
   <g id="patch_61">
    <path clip-path="url(#pb135466e2d)" d="M 147.387273 55569.720516 
L 148.655455 55569.720516 
L 148.655455 55569.720516 
L 147.387273 55569.720516 
z
" style="fill:#1f77b4;"/>
   </g>
   <g id="patch_62">
    <path clip-path="url(#pb135466e2d)" d="M 148.655455 55569.720516 
L 149.923636 55569.720516 
L 149.923636 256.852969 
L 148.655455 256.852969 
z
" style="fill:#1f77b4;"/>
   </g>
   <g id="patch_63">
    <path clip-path="url(#pb135466e2d)" d="M 149.923636 55569.720516 
L 151.191818 55569.720516 
L 151.191818 278.848798 
L 149.923636 278.848798 
z
" style="fill:#1f77b4;"/>
   </g>
   <g id="patch_64">
    <path clip-path="url(#pb135466e2d)" d="M 151.191818 55569.720516 
L 152.46 55569.720516 
L 152.46 269.115489 
L 151.191818 269.115489 
z
" style="fill:#1f77b4;"/>
   </g>
   <g id="patch_65">
    <path clip-path="url(#pb135466e2d)" d="M 152.46 55569.720516 
L 153.728182 55569.720516 
L 153.728182 262.209596 
L 152.46 262.209596 
z
" style="fill:#1f77b4;"/>
   </g>
   <g id="patch_66">
    <path clip-path="url(#pb135466e2d)" d="M 153.728182 55569.720516 
L 154.996364 55569.720516 
L 154.996364 269.115489 
L 153.728182 269.115489 
z
" style="fill:#1f77b4;"/>
   </g>
   <g id="patch_67">
    <path clip-path="url(#pb135466e2d)" d="M 154.996364 55569.720516 
L 156.264545 55569.720516 
L 156.264545 295.488 
L 154.996364 295.488 
z
" style="fill:#1f77b4;"/>
   </g>
   <g id="patch_68">
    <path clip-path="url(#pb135466e2d)" d="M 156.264545 55569.720516 
L 157.532727 55569.720516 
L 157.532727 256.852969 
L 156.264545 256.852969 
z
" style="fill:#1f77b4;"/>
   </g>
   <g id="patch_69">
    <path clip-path="url(#pb135466e2d)" d="M 157.532727 55569.720516 
L 158.800909 55569.720516 
L 158.800909 55569.720516 
L 157.532727 55569.720516 
z
" style="fill:#1f77b4;"/>
   </g>
   <g id="patch_70">
    <path clip-path="url(#pb135466e2d)" d="M 158.800909 55569.720516 
L 160.069091 55569.720516 
L 160.069091 262.209596 
L 158.800909 262.209596 
z
" style="fill:#1f77b4;"/>
   </g>
   <g id="patch_71">
    <path clip-path="url(#pb135466e2d)" d="M 160.069091 55569.720516 
L 161.337273 55569.720516 
L 161.337273 278.848798 
L 160.069091 278.848798 
z
" style="fill:#1f77b4;"/>
   </g>
   <g id="patch_72">
    <path clip-path="url(#pb135466e2d)" d="M 161.337273 55569.720516 
L 162.605455 55569.720516 
L 162.605455 55569.720516 
L 161.337273 55569.720516 
z
" style="fill:#1f77b4;"/>
   </g>
   <g id="patch_73">
    <path clip-path="url(#pb135466e2d)" d="M 162.605455 55569.720516 
L 163.873636 55569.720516 
L 163.873636 269.115489 
L 162.605455 269.115489 
z
" style="fill:#1f77b4;"/>
   </g>
   <g id="patch_74">
    <path clip-path="url(#pb135466e2d)" d="M 163.873636 55569.720516 
L 165.141818 55569.720516 
L 165.141818 55569.720516 
L 163.873636 55569.720516 
z
" style="fill:#1f77b4;"/>
   </g>
   <g id="patch_75">
    <path clip-path="url(#pb135466e2d)" d="M 165.141818 55569.720516 
L 166.41 55569.720516 
L 166.41 278.848798 
L 165.141818 278.848798 
z
" style="fill:#1f77b4;"/>
   </g>
   <g id="patch_76">
    <path clip-path="url(#pb135466e2d)" d="M 166.41 55569.720516 
L 167.678182 55569.720516 
L 167.678182 55569.720516 
L 166.41 55569.720516 
z
" style="fill:#1f77b4;"/>
   </g>
   <g id="patch_77">
    <path clip-path="url(#pb135466e2d)" d="M 167.678182 55569.720516 
L 168.946364 55569.720516 
L 168.946364 269.115489 
L 167.678182 269.115489 
z
" style="fill:#1f77b4;"/>
   </g>
   <g id="patch_78">
    <path clip-path="url(#pb135466e2d)" d="M 168.946364 55569.720516 
L 170.214545 55569.720516 
L 170.214545 262.209596 
L 168.946364 262.209596 
z
" style="fill:#1f77b4;"/>
   </g>
   <g id="patch_79">
    <path clip-path="url(#pb135466e2d)" d="M 170.214545 55569.720516 
L 171.482727 55569.720516 
L 171.482727 295.488 
L 170.214545 295.488 
z
" style="fill:#1f77b4;"/>
   </g>
   <g id="patch_80">
    <path clip-path="url(#pb135466e2d)" d="M 171.482727 55569.720516 
L 172.750909 55569.720516 
L 172.750909 295.488 
L 171.482727 295.488 
z
" style="fill:#1f77b4;"/>
   </g>
   <g id="patch_81">
    <path clip-path="url(#pb135466e2d)" d="M 172.750909 55569.720516 
L 174.019091 55569.720516 
L 174.019091 278.848798 
L 172.750909 278.848798 
z
" style="fill:#1f77b4;"/>
   </g>
   <g id="patch_82">
    <path clip-path="url(#pb135466e2d)" d="M 174.019091 55569.720516 
L 175.287273 55569.720516 
L 175.287273 269.115489 
L 174.019091 269.115489 
z
" style="fill:#1f77b4;"/>
   </g>
   <g id="patch_83">
    <path clip-path="url(#pb135466e2d)" d="M 175.287273 55569.720516 
L 176.555455 55569.720516 
L 176.555455 278.848798 
L 175.287273 278.848798 
z
" style="fill:#1f77b4;"/>
   </g>
   <g id="patch_84">
    <path clip-path="url(#pb135466e2d)" d="M 176.555455 55569.720516 
L 177.823636 55569.720516 
L 177.823636 278.848798 
L 176.555455 278.848798 
z
" style="fill:#1f77b4;"/>
   </g>
   <g id="patch_85">
    <path clip-path="url(#pb135466e2d)" d="M 177.823636 55569.720516 
L 179.091818 55569.720516 
L 179.091818 278.848798 
L 177.823636 278.848798 
z
" style="fill:#1f77b4;"/>
   </g>
   <g id="patch_86">
    <path clip-path="url(#pb135466e2d)" d="M 179.091818 55569.720516 
L 180.36 55569.720516 
L 180.36 55569.720516 
L 179.091818 55569.720516 
z
" style="fill:#1f77b4;"/>
   </g>
   <g id="patch_87">
    <path clip-path="url(#pb135466e2d)" d="M 180.36 55569.720516 
L 181.628182 55569.720516 
L 181.628182 278.848798 
L 180.36 278.848798 
z
" style="fill:#1f77b4;"/>
   </g>
   <g id="patch_88">
    <path clip-path="url(#pb135466e2d)" d="M 181.628182 55569.720516 
L 182.896364 55569.720516 
L 182.896364 278.848798 
L 181.628182 278.848798 
z
" style="fill:#1f77b4;"/>
   </g>
   <g id="patch_89">
    <path clip-path="url(#pb135466e2d)" d="M 182.896364 55569.720516 
L 184.164545 55569.720516 
L 184.164545 278.848798 
L 182.896364 278.848798 
z
" style="fill:#1f77b4;"/>
   </g>
   <g id="patch_90">
    <path clip-path="url(#pb135466e2d)" d="M 184.164545 55569.720516 
L 185.432727 55569.720516 
L 185.432727 295.488 
L 184.164545 295.488 
z
" style="fill:#1f77b4;"/>
   </g>
   <g id="patch_91">
    <path clip-path="url(#pb135466e2d)" d="M 185.432727 55569.720516 
L 186.700909 55569.720516 
L 186.700909 295.488 
L 185.432727 295.488 
z
" style="fill:#1f77b4;"/>
   </g>
   <g id="patch_92">
    <path clip-path="url(#pb135466e2d)" d="M 186.700909 55569.720516 
L 187.969091 55569.720516 
L 187.969091 295.488 
L 186.700909 295.488 
z
" style="fill:#1f77b4;"/>
   </g>
   <g id="patch_93">
    <path clip-path="url(#pb135466e2d)" d="M 187.969091 55569.720516 
L 189.237273 55569.720516 
L 189.237273 295.488 
L 187.969091 295.488 
z
" style="fill:#1f77b4;"/>
   </g>
   <g id="patch_94">
    <path clip-path="url(#pb135466e2d)" d="M 189.237273 55569.720516 
L 190.505455 55569.720516 
L 190.505455 55569.720516 
L 189.237273 55569.720516 
z
" style="fill:#1f77b4;"/>
   </g>
   <g id="patch_95">
    <path clip-path="url(#pb135466e2d)" d="M 190.505455 55569.720516 
L 191.773636 55569.720516 
L 191.773636 278.848798 
L 190.505455 278.848798 
z
" style="fill:#1f77b4;"/>
   </g>
   <g id="patch_96">
    <path clip-path="url(#pb135466e2d)" d="M 191.773636 55569.720516 
L 193.041818 55569.720516 
L 193.041818 269.115489 
L 191.773636 269.115489 
z
" style="fill:#1f77b4;"/>
   </g>
   <g id="patch_97">
    <path clip-path="url(#pb135466e2d)" d="M 193.041818 55569.720516 
L 194.31 55569.720516 
L 194.31 295.488 
L 193.041818 295.488 
z
" style="fill:#1f77b4;"/>
   </g>
   <g id="patch_98">
    <path clip-path="url(#pb135466e2d)" d="M 194.31 55569.720516 
L 195.578182 55569.720516 
L 195.578182 295.488 
L 194.31 295.488 
z
" style="fill:#1f77b4;"/>
   </g>
   <g id="patch_99">
    <path clip-path="url(#pb135466e2d)" d="M 195.578182 55569.720516 
L 196.846364 55569.720516 
L 196.846364 269.115489 
L 195.578182 269.115489 
z
" style="fill:#1f77b4;"/>
   </g>
   <g id="patch_100">
    <path clip-path="url(#pb135466e2d)" d="M 196.846364 55569.720516 
L 198.114545 55569.720516 
L 198.114545 269.115489 
L 196.846364 269.115489 
z
" style="fill:#1f77b4;"/>
   </g>
   <g id="patch_101">
    <path clip-path="url(#pb135466e2d)" d="M 198.114545 55569.720516 
L 199.382727 55569.720516 
L 199.382727 295.488 
L 198.114545 295.488 
z
" style="fill:#1f77b4;"/>
   </g>
   <g id="patch_102">
    <path clip-path="url(#pb135466e2d)" d="M 199.382727 55569.720516 
L 200.650909 55569.720516 
L 200.650909 295.488 
L 199.382727 295.488 
z
" style="fill:#1f77b4;"/>
   </g>
   <g id="patch_103">
    <path clip-path="url(#pb135466e2d)" d="M 200.650909 55569.720516 
L 201.919091 55569.720516 
L 201.919091 295.488 
L 200.650909 295.488 
z
" style="fill:#1f77b4;"/>
   </g>
   <g id="patch_104">
    <path clip-path="url(#pb135466e2d)" d="M 201.919091 55569.720516 
L 203.187273 55569.720516 
L 203.187273 55569.720516 
L 201.919091 55569.720516 
z
" style="fill:#1f77b4;"/>
   </g>
   <g id="patch_105">
    <path clip-path="url(#pb135466e2d)" d="M 203.187273 55569.720516 
L 204.455455 55569.720516 
L 204.455455 55569.720516 
L 203.187273 55569.720516 
z
" style="fill:#1f77b4;"/>
   </g>
   <g id="patch_106">
    <path clip-path="url(#pb135466e2d)" d="M 204.455455 55569.720516 
L 205.723636 55569.720516 
L 205.723636 55569.720516 
L 204.455455 55569.720516 
z
" style="fill:#1f77b4;"/>
   </g>
   <g id="patch_107">
    <path clip-path="url(#pb135466e2d)" d="M 205.723636 55569.720516 
L 206.991818 55569.720516 
L 206.991818 55569.720516 
L 205.723636 55569.720516 
z
" style="fill:#1f77b4;"/>
   </g>
   <g id="patch_108">
    <path clip-path="url(#pb135466e2d)" d="M 206.991818 55569.720516 
L 208.26 55569.720516 
L 208.26 278.848798 
L 206.991818 278.848798 
z
" style="fill:#1f77b4;"/>
   </g>
   <g id="patch_109">
    <path clip-path="url(#pb135466e2d)" d="M 208.26 55569.720516 
L 209.528182 55569.720516 
L 209.528182 278.848798 
L 208.26 278.848798 
z
" style="fill:#1f77b4;"/>
   </g>
   <g id="patch_110">
    <path clip-path="url(#pb135466e2d)" d="M 209.528182 55569.720516 
L 210.796364 55569.720516 
L 210.796364 278.848798 
L 209.528182 278.848798 
z
" style="fill:#1f77b4;"/>
   </g>
   <g id="patch_111">
    <path clip-path="url(#pb135466e2d)" d="M 210.796364 55569.720516 
L 212.064545 55569.720516 
L 212.064545 295.488 
L 210.796364 295.488 
z
" style="fill:#1f77b4;"/>
   </g>
   <g id="patch_112">
    <path clip-path="url(#pb135466e2d)" d="M 212.064545 55569.720516 
L 213.332727 55569.720516 
L 213.332727 295.488 
L 212.064545 295.488 
z
" style="fill:#1f77b4;"/>
   </g>
   <g id="patch_113">
    <path clip-path="url(#pb135466e2d)" d="M 213.332727 55569.720516 
L 214.600909 55569.720516 
L 214.600909 55569.720516 
L 213.332727 55569.720516 
z
" style="fill:#1f77b4;"/>
   </g>
   <g id="patch_114">
    <path clip-path="url(#pb135466e2d)" d="M 214.600909 55569.720516 
L 215.869091 55569.720516 
L 215.869091 55569.720516 
L 214.600909 55569.720516 
z
" style="fill:#1f77b4;"/>
   </g>
   <g id="patch_115">
    <path clip-path="url(#pb135466e2d)" d="M 215.869091 55569.720516 
L 217.137273 55569.720516 
L 217.137273 295.488 
L 215.869091 295.488 
z
" style="fill:#1f77b4;"/>
   </g>
   <g id="patch_116">
    <path clip-path="url(#pb135466e2d)" d="M 217.137273 55569.720516 
L 218.405455 55569.720516 
L 218.405455 55569.720516 
L 217.137273 55569.720516 
z
" style="fill:#1f77b4;"/>
   </g>
   <g id="patch_117">
    <path clip-path="url(#pb135466e2d)" d="M 218.405455 55569.720516 
L 219.673636 55569.720516 
L 219.673636 55569.720516 
L 218.405455 55569.720516 
z
" style="fill:#1f77b4;"/>
   </g>
   <g id="patch_118">
    <path clip-path="url(#pb135466e2d)" d="M 219.673636 55569.720516 
L 220.941818 55569.720516 
L 220.941818 55569.720516 
L 219.673636 55569.720516 
z
" style="fill:#1f77b4;"/>
   </g>
   <g id="patch_119">
    <path clip-path="url(#pb135466e2d)" d="M 220.941818 55569.720516 
L 222.21 55569.720516 
L 222.21 55569.720516 
L 220.941818 55569.720516 
z
" style="fill:#1f77b4;"/>
   </g>
   <g id="patch_120">
    <path clip-path="url(#pb135466e2d)" d="M 222.21 55569.720516 
L 223.478182 55569.720516 
L 223.478182 55569.720516 
L 222.21 55569.720516 
z
" style="fill:#1f77b4;"/>
   </g>
   <g id="patch_121">
    <path clip-path="url(#pb135466e2d)" d="M 223.478182 55569.720516 
L 224.746364 55569.720516 
L 224.746364 295.488 
L 223.478182 295.488 
z
" style="fill:#1f77b4;"/>
   </g>
   <g id="patch_122">
    <path clip-path="url(#pb135466e2d)" d="M 224.746364 55569.720516 
L 226.014545 55569.720516 
L 226.014545 55569.720516 
L 224.746364 55569.720516 
z
" style="fill:#1f77b4;"/>
   </g>
   <g id="patch_123">
    <path clip-path="url(#pb135466e2d)" d="M 226.014545 55569.720516 
L 227.282727 55569.720516 
L 227.282727 55569.720516 
L 226.014545 55569.720516 
z
" style="fill:#1f77b4;"/>
   </g>
   <g id="patch_124">
    <path clip-path="url(#pb135466e2d)" d="M 227.282727 55569.720516 
L 228.550909 55569.720516 
L 228.550909 295.488 
L 227.282727 295.488 
z
" style="fill:#1f77b4;"/>
   </g>
   <g id="patch_125">
    <path clip-path="url(#pb135466e2d)" d="M 228.550909 55569.720516 
L 229.819091 55569.720516 
L 229.819091 55569.720516 
L 228.550909 55569.720516 
z
" style="fill:#1f77b4;"/>
   </g>
   <g id="patch_126">
    <path clip-path="url(#pb135466e2d)" d="M 229.819091 55569.720516 
L 231.087273 55569.720516 
L 231.087273 55569.720516 
L 229.819091 55569.720516 
z
" style="fill:#1f77b4;"/>
   </g>
   <g id="patch_127">
    <path clip-path="url(#pb135466e2d)" d="M 231.087273 55569.720516 
L 232.355455 55569.720516 
L 232.355455 55569.720516 
L 231.087273 55569.720516 
z
" style="fill:#1f77b4;"/>
   </g>
   <g id="patch_128">
    <path clip-path="url(#pb135466e2d)" d="M 232.355455 55569.720516 
L 233.623636 55569.720516 
L 233.623636 55569.720516 
L 232.355455 55569.720516 
z
" style="fill:#1f77b4;"/>
   </g>
   <g id="patch_129">
    <path clip-path="url(#pb135466e2d)" d="M 233.623636 55569.720516 
L 234.891818 55569.720516 
L 234.891818 278.848798 
L 233.623636 278.848798 
z
" style="fill:#1f77b4;"/>
   </g>
   <g id="patch_130">
    <path clip-path="url(#pb135466e2d)" d="M 234.891818 55569.720516 
L 236.16 55569.720516 
L 236.16 55569.720516 
L 234.891818 55569.720516 
z
" style="fill:#1f77b4;"/>
   </g>
   <g id="patch_131">
    <path clip-path="url(#pb135466e2d)" d="M 236.16 55569.720516 
L 237.428182 55569.720516 
L 237.428182 55569.720516 
L 236.16 55569.720516 
z
" style="fill:#1f77b4;"/>
   </g>
   <g id="patch_132">
    <path clip-path="url(#pb135466e2d)" d="M 237.428182 55569.720516 
L 238.696364 55569.720516 
L 238.696364 55569.720516 
L 237.428182 55569.720516 
z
" style="fill:#1f77b4;"/>
   </g>
   <g id="patch_133">
    <path clip-path="url(#pb135466e2d)" d="M 238.696364 55569.720516 
L 239.964545 55569.720516 
L 239.964545 295.488 
L 238.696364 295.488 
z
" style="fill:#1f77b4;"/>
   </g>
   <g id="patch_134">
    <path clip-path="url(#pb135466e2d)" d="M 239.964545 55569.720516 
L 241.232727 55569.720516 
L 241.232727 295.488 
L 239.964545 295.488 
z
" style="fill:#1f77b4;"/>
   </g>
   <g id="patch_135">
    <path clip-path="url(#pb135466e2d)" d="M 241.232727 55569.720516 
L 242.500909 55569.720516 
L 242.500909 55569.720516 
L 241.232727 55569.720516 
z
" style="fill:#1f77b4;"/>
   </g>
   <g id="patch_136">
    <path clip-path="url(#pb135466e2d)" d="M 242.500909 55569.720516 
L 243.769091 55569.720516 
L 243.769091 295.488 
L 242.500909 295.488 
z
" style="fill:#1f77b4;"/>
   </g>
   <g id="patch_137">
    <path clip-path="url(#pb135466e2d)" d="M 243.769091 55569.720516 
L 245.037273 55569.720516 
L 245.037273 55569.720516 
L 243.769091 55569.720516 
z
" style="fill:#1f77b4;"/>
   </g>
   <g id="patch_138">
    <path clip-path="url(#pb135466e2d)" d="M 245.037273 55569.720516 
L 246.305455 55569.720516 
L 246.305455 55569.720516 
L 245.037273 55569.720516 
z
" style="fill:#1f77b4;"/>
   </g>
   <g id="patch_139">
    <path clip-path="url(#pb135466e2d)" d="M 246.305455 55569.720516 
L 247.573636 55569.720516 
L 247.573636 55569.720516 
L 246.305455 55569.720516 
z
" style="fill:#1f77b4;"/>
   </g>
   <g id="patch_140">
    <path clip-path="url(#pb135466e2d)" d="M 247.573636 55569.720516 
L 248.841818 55569.720516 
L 248.841818 55569.720516 
L 247.573636 55569.720516 
z
" style="fill:#1f77b4;"/>
   </g>
   <g id="patch_141">
    <path clip-path="url(#pb135466e2d)" d="M 248.841818 55569.720516 
L 250.11 55569.720516 
L 250.11 55569.720516 
L 248.841818 55569.720516 
z
" style="fill:#1f77b4;"/>
   </g>
   <g id="patch_142">
    <path clip-path="url(#pb135466e2d)" d="M 250.11 55569.720516 
L 251.378182 55569.720516 
L 251.378182 55569.720516 
L 250.11 55569.720516 
z
" style="fill:#1f77b4;"/>
   </g>
   <g id="patch_143">
    <path clip-path="url(#pb135466e2d)" d="M 251.378182 55569.720516 
L 252.646364 55569.720516 
L 252.646364 55569.720516 
L 251.378182 55569.720516 
z
" style="fill:#1f77b4;"/>
   </g>
   <g id="patch_144">
    <path clip-path="url(#pb135466e2d)" d="M 252.646364 55569.720516 
L 253.914545 55569.720516 
L 253.914545 55569.720516 
L 252.646364 55569.720516 
z
" style="fill:#1f77b4;"/>
   </g>
   <g id="patch_145">
    <path clip-path="url(#pb135466e2d)" d="M 253.914545 55569.720516 
L 255.182727 55569.720516 
L 255.182727 295.488 
L 253.914545 295.488 
z
" style="fill:#1f77b4;"/>
   </g>
   <g id="patch_146">
    <path clip-path="url(#pb135466e2d)" d="M 255.182727 55569.720516 
L 256.450909 55569.720516 
L 256.450909 55569.720516 
L 255.182727 55569.720516 
z
" style="fill:#1f77b4;"/>
   </g>
   <g id="patch_147">
    <path clip-path="url(#pb135466e2d)" d="M 256.450909 55569.720516 
L 257.719091 55569.720516 
L 257.719091 55569.720516 
L 256.450909 55569.720516 
z
" style="fill:#1f77b4;"/>
   </g>
   <g id="patch_148">
    <path clip-path="url(#pb135466e2d)" d="M 257.719091 55569.720516 
L 258.987273 55569.720516 
L 258.987273 55569.720516 
L 257.719091 55569.720516 
z
" style="fill:#1f77b4;"/>
   </g>
   <g id="patch_149">
    <path clip-path="url(#pb135466e2d)" d="M 258.987273 55569.720516 
L 260.255455 55569.720516 
L 260.255455 55569.720516 
L 258.987273 55569.720516 
z
" style="fill:#1f77b4;"/>
   </g>
   <g id="patch_150">
    <path clip-path="url(#pb135466e2d)" d="M 260.255455 55569.720516 
L 261.523636 55569.720516 
L 261.523636 55569.720516 
L 260.255455 55569.720516 
z
" style="fill:#1f77b4;"/>
   </g>
   <g id="patch_151">
    <path clip-path="url(#pb135466e2d)" d="M 261.523636 55569.720516 
L 262.791818 55569.720516 
L 262.791818 55569.720516 
L 261.523636 55569.720516 
z
" style="fill:#1f77b4;"/>
   </g>
   <g id="patch_152">
    <path clip-path="url(#pb135466e2d)" d="M 262.791818 55569.720516 
L 264.06 55569.720516 
L 264.06 55569.720516 
L 262.791818 55569.720516 
z
" style="fill:#1f77b4;"/>
   </g>
   <g id="patch_153">
    <path clip-path="url(#pb135466e2d)" d="M 264.06 55569.720516 
L 265.328182 55569.720516 
L 265.328182 55569.720516 
L 264.06 55569.720516 
z
" style="fill:#1f77b4;"/>
   </g>
   <g id="patch_154">
    <path clip-path="url(#pb135466e2d)" d="M 265.328182 55569.720516 
L 266.596364 55569.720516 
L 266.596364 295.488 
L 265.328182 295.488 
z
" style="fill:#1f77b4;"/>
   </g>
   <g id="patch_155">
    <path clip-path="url(#pb135466e2d)" d="M 266.596364 55569.720516 
L 267.864545 55569.720516 
L 267.864545 55569.720516 
L 266.596364 55569.720516 
z
" style="fill:#1f77b4;"/>
   </g>
   <g id="patch_156">
    <path clip-path="url(#pb135466e2d)" d="M 267.864545 55569.720516 
L 269.132727 55569.720516 
L 269.132727 55569.720516 
L 267.864545 55569.720516 
z
" style="fill:#1f77b4;"/>
   </g>
   <g id="patch_157">
    <path clip-path="url(#pb135466e2d)" d="M 269.132727 55569.720516 
L 270.400909 55569.720516 
L 270.400909 55569.720516 
L 269.132727 55569.720516 
z
" style="fill:#1f77b4;"/>
   </g>
   <g id="patch_158">
    <path clip-path="url(#pb135466e2d)" d="M 270.400909 55569.720516 
L 271.669091 55569.720516 
L 271.669091 55569.720516 
L 270.400909 55569.720516 
z
" style="fill:#1f77b4;"/>
   </g>
   <g id="patch_159">
    <path clip-path="url(#pb135466e2d)" d="M 271.669091 55569.720516 
L 272.937273 55569.720516 
L 272.937273 295.488 
L 271.669091 295.488 
z
" style="fill:#1f77b4;"/>
   </g>
   <g id="patch_160">
    <path clip-path="url(#pb135466e2d)" d="M 272.937273 55569.720516 
L 274.205455 55569.720516 
L 274.205455 55569.720516 
L 272.937273 55569.720516 
z
" style="fill:#1f77b4;"/>
   </g>
   <g id="patch_161">
    <path clip-path="url(#pb135466e2d)" d="M 274.205455 55569.720516 
L 275.473636 55569.720516 
L 275.473636 55569.720516 
L 274.205455 55569.720516 
z
" style="fill:#1f77b4;"/>
   </g>
   <g id="patch_162">
    <path clip-path="url(#pb135466e2d)" d="M 275.473636 55569.720516 
L 276.741818 55569.720516 
L 276.741818 55569.720516 
L 275.473636 55569.720516 
z
" style="fill:#1f77b4;"/>
   </g>
   <g id="patch_163">
    <path clip-path="url(#pb135466e2d)" d="M 276.741818 55569.720516 
L 278.01 55569.720516 
L 278.01 55569.720516 
L 276.741818 55569.720516 
z
" style="fill:#1f77b4;"/>
   </g>
   <g id="patch_164">
    <path clip-path="url(#pb135466e2d)" d="M 278.01 55569.720516 
L 279.278182 55569.720516 
L 279.278182 55569.720516 
L 278.01 55569.720516 
z
" style="fill:#1f77b4;"/>
   </g>
   <g id="patch_165">
    <path clip-path="url(#pb135466e2d)" d="M 279.278182 55569.720516 
L 280.546364 55569.720516 
L 280.546364 55569.720516 
L 279.278182 55569.720516 
z
" style="fill:#1f77b4;"/>
   </g>
   <g id="patch_166">
    <path clip-path="url(#pb135466e2d)" d="M 280.546364 55569.720516 
L 281.814545 55569.720516 
L 281.814545 55569.720516 
L 280.546364 55569.720516 
z
" style="fill:#1f77b4;"/>
   </g>
   <g id="patch_167">
    <path clip-path="url(#pb135466e2d)" d="M 281.814545 55569.720516 
L 283.082727 55569.720516 
L 283.082727 55569.720516 
L 281.814545 55569.720516 
z
" style="fill:#1f77b4;"/>
   </g>
   <g id="patch_168">
    <path clip-path="url(#pb135466e2d)" d="M 283.082727 55569.720516 
L 284.350909 55569.720516 
L 284.350909 55569.720516 
L 283.082727 55569.720516 
z
" style="fill:#1f77b4;"/>
   </g>
   <g id="patch_169">
    <path clip-path="url(#pb135466e2d)" d="M 284.350909 55569.720516 
L 285.619091 55569.720516 
L 285.619091 55569.720516 
L 284.350909 55569.720516 
z
" style="fill:#1f77b4;"/>
   </g>
   <g id="patch_170">
    <path clip-path="url(#pb135466e2d)" d="M 285.619091 55569.720516 
L 286.887273 55569.720516 
L 286.887273 55569.720516 
L 285.619091 55569.720516 
z
" style="fill:#1f77b4;"/>
   </g>
   <g id="patch_171">
    <path clip-path="url(#pb135466e2d)" d="M 286.887273 55569.720516 
L 288.155455 55569.720516 
L 288.155455 55569.720516 
L 286.887273 55569.720516 
z
" style="fill:#1f77b4;"/>
   </g>
   <g id="patch_172">
    <path clip-path="url(#pb135466e2d)" d="M 288.155455 55569.720516 
L 289.423636 55569.720516 
L 289.423636 55569.720516 
L 288.155455 55569.720516 
z
" style="fill:#1f77b4;"/>
   </g>
   <g id="patch_173">
    <path clip-path="url(#pb135466e2d)" d="M 289.423636 55569.720516 
L 290.691818 55569.720516 
L 290.691818 295.488 
L 289.423636 295.488 
z
" style="fill:#1f77b4;"/>
   </g>
   <g id="patch_174">
    <path clip-path="url(#pb135466e2d)" d="M 290.691818 55569.720516 
L 291.96 55569.720516 
L 291.96 55569.720516 
L 290.691818 55569.720516 
z
" style="fill:#1f77b4;"/>
   </g>
   <g id="patch_175">
    <path clip-path="url(#pb135466e2d)" d="M 291.96 55569.720516 
L 293.228182 55569.720516 
L 293.228182 55569.720516 
L 291.96 55569.720516 
z
" style="fill:#1f77b4;"/>
   </g>
   <g id="patch_176">
    <path clip-path="url(#pb135466e2d)" d="M 293.228182 55569.720516 
L 294.496364 55569.720516 
L 294.496364 55569.720516 
L 293.228182 55569.720516 
z
" style="fill:#1f77b4;"/>
   </g>
   <g id="patch_177">
    <path clip-path="url(#pb135466e2d)" d="M 294.496364 55569.720516 
L 295.764545 55569.720516 
L 295.764545 55569.720516 
L 294.496364 55569.720516 
z
" style="fill:#1f77b4;"/>
   </g>
   <g id="patch_178">
    <path clip-path="url(#pb135466e2d)" d="M 295.764545 55569.720516 
L 297.032727 55569.720516 
L 297.032727 55569.720516 
L 295.764545 55569.720516 
z
" style="fill:#1f77b4;"/>
   </g>
   <g id="patch_179">
    <path clip-path="url(#pb135466e2d)" d="M 297.032727 55569.720516 
L 298.300909 55569.720516 
L 298.300909 295.488 
L 297.032727 295.488 
z
" style="fill:#1f77b4;"/>
   </g>
   <g id="patch_180">
    <path clip-path="url(#pb135466e2d)" d="M 298.300909 55569.720516 
L 299.569091 55569.720516 
L 299.569091 278.848798 
L 298.300909 278.848798 
z
" style="fill:#1f77b4;"/>
   </g>
   <g id="patch_181">
    <path clip-path="url(#pb135466e2d)" d="M 299.569091 55569.720516 
L 300.837273 55569.720516 
L 300.837273 55569.720516 
L 299.569091 55569.720516 
z
" style="fill:#1f77b4;"/>
   </g>
   <g id="patch_182">
    <path clip-path="url(#pb135466e2d)" d="M 300.837273 55569.720516 
L 302.105455 55569.720516 
L 302.105455 295.488 
L 300.837273 295.488 
z
" style="fill:#1f77b4;"/>
   </g>
   <g id="patch_183">
    <path clip-path="url(#pb135466e2d)" d="M 302.105455 55569.720516 
L 303.373636 55569.720516 
L 303.373636 55569.720516 
L 302.105455 55569.720516 
z
" style="fill:#1f77b4;"/>
   </g>
   <g id="patch_184">
    <path clip-path="url(#pb135466e2d)" d="M 303.373636 55569.720516 
L 304.641818 55569.720516 
L 304.641818 55569.720516 
L 303.373636 55569.720516 
z
" style="fill:#1f77b4;"/>
   </g>
   <g id="patch_185">
    <path clip-path="url(#pb135466e2d)" d="M 304.641818 55569.720516 
L 305.91 55569.720516 
L 305.91 55569.720516 
L 304.641818 55569.720516 
z
" style="fill:#1f77b4;"/>
   </g>
   <g id="patch_186">
    <path clip-path="url(#pb135466e2d)" d="M 305.91 55569.720516 
L 307.178182 55569.720516 
L 307.178182 55569.720516 
L 305.91 55569.720516 
z
" style="fill:#1f77b4;"/>
   </g>
   <g id="patch_187">
    <path clip-path="url(#pb135466e2d)" d="M 307.178182 55569.720516 
L 308.446364 55569.720516 
L 308.446364 55569.720516 
L 307.178182 55569.720516 
z
" style="fill:#1f77b4;"/>
   </g>
   <g id="patch_188">
    <path clip-path="url(#pb135466e2d)" d="M 308.446364 55569.720516 
L 309.714545 55569.720516 
L 309.714545 55569.720516 
L 308.446364 55569.720516 
z
" style="fill:#1f77b4;"/>
   </g>
   <g id="patch_189">
    <path clip-path="url(#pb135466e2d)" d="M 309.714545 55569.720516 
L 310.982727 55569.720516 
L 310.982727 55569.720516 
L 309.714545 55569.720516 
z
" style="fill:#1f77b4;"/>
   </g>
   <g id="patch_190">
    <path clip-path="url(#pb135466e2d)" d="M 310.982727 55569.720516 
L 312.250909 55569.720516 
L 312.250909 55569.720516 
L 310.982727 55569.720516 
z
" style="fill:#1f77b4;"/>
   </g>
   <g id="patch_191">
    <path clip-path="url(#pb135466e2d)" d="M 312.250909 55569.720516 
L 313.519091 55569.720516 
L 313.519091 55569.720516 
L 312.250909 55569.720516 
z
" style="fill:#1f77b4;"/>
   </g>
   <g id="patch_192">
    <path clip-path="url(#pb135466e2d)" d="M 313.519091 55569.720516 
L 314.787273 55569.720516 
L 314.787273 55569.720516 
L 313.519091 55569.720516 
z
" style="fill:#1f77b4;"/>
   </g>
   <g id="patch_193">
    <path clip-path="url(#pb135466e2d)" d="M 314.787273 55569.720516 
L 316.055455 55569.720516 
L 316.055455 55569.720516 
L 314.787273 55569.720516 
z
" style="fill:#1f77b4;"/>
   </g>
   <g id="patch_194">
    <path clip-path="url(#pb135466e2d)" d="M 316.055455 55569.720516 
L 317.323636 55569.720516 
L 317.323636 55569.720516 
L 316.055455 55569.720516 
z
" style="fill:#1f77b4;"/>
   </g>
   <g id="patch_195">
    <path clip-path="url(#pb135466e2d)" d="M 317.323636 55569.720516 
L 318.591818 55569.720516 
L 318.591818 55569.720516 
L 317.323636 55569.720516 
z
" style="fill:#1f77b4;"/>
   </g>
   <g id="patch_196">
    <path clip-path="url(#pb135466e2d)" d="M 318.591818 55569.720516 
L 319.86 55569.720516 
L 319.86 295.488 
L 318.591818 295.488 
z
" style="fill:#1f77b4;"/>
   </g>
   <g id="patch_197">
    <path clip-path="url(#pb135466e2d)" d="M 319.86 55569.720516 
L 321.128182 55569.720516 
L 321.128182 55569.720516 
L 319.86 55569.720516 
z
" style="fill:#1f77b4;"/>
   </g>
   <g id="patch_198">
    <path clip-path="url(#pb135466e2d)" d="M 321.128182 55569.720516 
L 322.396364 55569.720516 
L 322.396364 55569.720516 
L 321.128182 55569.720516 
z
" style="fill:#1f77b4;"/>
   </g>
   <g id="patch_199">
    <path clip-path="url(#pb135466e2d)" d="M 322.396364 55569.720516 
L 323.664545 55569.720516 
L 323.664545 55569.720516 
L 322.396364 55569.720516 
z
" style="fill:#1f77b4;"/>
   </g>
   <g id="patch_200">
    <path clip-path="url(#pb135466e2d)" d="M 323.664545 55569.720516 
L 324.932727 55569.720516 
L 324.932727 55569.720516 
L 323.664545 55569.720516 
z
" style="fill:#1f77b4;"/>
   </g>
   <g id="patch_201">
    <path clip-path="url(#pb135466e2d)" d="M 324.932727 55569.720516 
L 326.200909 55569.720516 
L 326.200909 55569.720516 
L 324.932727 55569.720516 
z
" style="fill:#1f77b4;"/>
   </g>
   <g id="patch_202">
    <path clip-path="url(#pb135466e2d)" d="M 326.200909 55569.720516 
L 327.469091 55569.720516 
L 327.469091 295.488 
L 326.200909 295.488 
z
" style="fill:#1f77b4;"/>
   </g>
   <g id="patch_203">
    <path clip-path="url(#pb135466e2d)" d="M 327.469091 55569.720516 
L 328.737273 55569.720516 
L 328.737273 55569.720516 
L 327.469091 55569.720516 
z
" style="fill:#1f77b4;"/>
   </g>
   <g id="patch_204">
    <path clip-path="url(#pb135466e2d)" d="M 328.737273 55569.720516 
L 330.005455 55569.720516 
L 330.005455 55569.720516 
L 328.737273 55569.720516 
z
" style="fill:#1f77b4;"/>
   </g>
   <g id="patch_205">
    <path clip-path="url(#pb135466e2d)" d="M 330.005455 55569.720516 
L 331.273636 55569.720516 
L 331.273636 55569.720516 
L 330.005455 55569.720516 
z
" style="fill:#1f77b4;"/>
   </g>
   <g id="patch_206">
    <path clip-path="url(#pb135466e2d)" d="M 331.273636 55569.720516 
L 332.541818 55569.720516 
L 332.541818 55569.720516 
L 331.273636 55569.720516 
z
" style="fill:#1f77b4;"/>
   </g>
   <g id="patch_207">
    <path clip-path="url(#pb135466e2d)" d="M 332.541818 55569.720516 
L 333.81 55569.720516 
L 333.81 55569.720516 
L 332.541818 55569.720516 
z
" style="fill:#1f77b4;"/>
   </g>
   <g id="patch_208">
    <path clip-path="url(#pb135466e2d)" d="M 333.81 55569.720516 
L 335.078182 55569.720516 
L 335.078182 55569.720516 
L 333.81 55569.720516 
z
" style="fill:#1f77b4;"/>
   </g>
   <g id="patch_209">
    <path clip-path="url(#pb135466e2d)" d="M 335.078182 55569.720516 
L 336.346364 55569.720516 
L 336.346364 55569.720516 
L 335.078182 55569.720516 
z
" style="fill:#1f77b4;"/>
   </g>
   <g id="patch_210">
    <path clip-path="url(#pb135466e2d)" d="M 336.346364 55569.720516 
L 337.614545 55569.720516 
L 337.614545 55569.720516 
L 336.346364 55569.720516 
z
" style="fill:#1f77b4;"/>
   </g>
   <g id="patch_211">
    <path clip-path="url(#pb135466e2d)" d="M 337.614545 55569.720516 
L 338.882727 55569.720516 
L 338.882727 55569.720516 
L 337.614545 55569.720516 
z
" style="fill:#1f77b4;"/>
   </g>
   <g id="patch_212">
    <path clip-path="url(#pb135466e2d)" d="M 338.882727 55569.720516 
L 340.150909 55569.720516 
L 340.150909 55569.720516 
L 338.882727 55569.720516 
z
" style="fill:#1f77b4;"/>
   </g>
   <g id="patch_213">
    <path clip-path="url(#pb135466e2d)" d="M 340.150909 55569.720516 
L 341.419091 55569.720516 
L 341.419091 55569.720516 
L 340.150909 55569.720516 
z
" style="fill:#1f77b4;"/>
   </g>
   <g id="patch_214">
    <path clip-path="url(#pb135466e2d)" d="M 341.419091 55569.720516 
L 342.687273 55569.720516 
L 342.687273 55569.720516 
L 341.419091 55569.720516 
z
" style="fill:#1f77b4;"/>
   </g>
   <g id="patch_215">
    <path clip-path="url(#pb135466e2d)" d="M 342.687273 55569.720516 
L 343.955455 55569.720516 
L 343.955455 278.848798 
L 342.687273 278.848798 
z
" style="fill:#1f77b4;"/>
   </g>
   <g id="patch_216">
    <path clip-path="url(#pb135466e2d)" d="M 343.955455 55569.720516 
L 345.223636 55569.720516 
L 345.223636 295.488 
L 343.955455 295.488 
z
" style="fill:#1f77b4;"/>
   </g>
   <g id="patch_217">
    <path clip-path="url(#pb135466e2d)" d="M 345.223636 55569.720516 
L 346.491818 55569.720516 
L 346.491818 55569.720516 
L 345.223636 55569.720516 
z
" style="fill:#1f77b4;"/>
   </g>
   <g id="patch_218">
    <path clip-path="url(#pb135466e2d)" d="M 346.491818 55569.720516 
L 347.76 55569.720516 
L 347.76 55569.720516 
L 346.491818 55569.720516 
z
" style="fill:#1f77b4;"/>
   </g>
   <g id="patch_219">
    <path clip-path="url(#pb135466e2d)" d="M 347.76 55569.720516 
L 349.028182 55569.720516 
L 349.028182 55569.720516 
L 347.76 55569.720516 
z
" style="fill:#1f77b4;"/>
   </g>
   <g id="patch_220">
    <path clip-path="url(#pb135466e2d)" d="M 349.028182 55569.720516 
L 350.296364 55569.720516 
L 350.296364 55569.720516 
L 349.028182 55569.720516 
z
" style="fill:#1f77b4;"/>
   </g>
   <g id="patch_221">
    <path clip-path="url(#pb135466e2d)" d="M 350.296364 55569.720516 
L 351.564545 55569.720516 
L 351.564545 55569.720516 
L 350.296364 55569.720516 
z
" style="fill:#1f77b4;"/>
   </g>
   <g id="patch_222">
    <path clip-path="url(#pb135466e2d)" d="M 351.564545 55569.720516 
L 352.832727 55569.720516 
L 352.832727 55569.720516 
L 351.564545 55569.720516 
z
" style="fill:#1f77b4;"/>
   </g>
   <g id="patch_223">
    <path clip-path="url(#pb135466e2d)" d="M 352.832727 55569.720516 
L 354.100909 55569.720516 
L 354.100909 55569.720516 
L 352.832727 55569.720516 
z
" style="fill:#1f77b4;"/>
   </g>
   <g id="patch_224">
    <path clip-path="url(#pb135466e2d)" d="M 354.100909 55569.720516 
L 355.369091 55569.720516 
L 355.369091 55569.720516 
L 354.100909 55569.720516 
z
" style="fill:#1f77b4;"/>
   </g>
   <g id="patch_225">
    <path clip-path="url(#pb135466e2d)" d="M 355.369091 55569.720516 
L 356.637273 55569.720516 
L 356.637273 55569.720516 
L 355.369091 55569.720516 
z
" style="fill:#1f77b4;"/>
   </g>
   <g id="patch_226">
    <path clip-path="url(#pb135466e2d)" d="M 356.637273 55569.720516 
L 357.905455 55569.720516 
L 357.905455 55569.720516 
L 356.637273 55569.720516 
z
" style="fill:#1f77b4;"/>
   </g>
   <g id="patch_227">
    <path clip-path="url(#pb135466e2d)" d="M 357.905455 55569.720516 
L 359.173636 55569.720516 
L 359.173636 55569.720516 
L 357.905455 55569.720516 
z
" style="fill:#1f77b4;"/>
   </g>
   <g id="patch_228">
    <path clip-path="url(#pb135466e2d)" d="M 359.173636 55569.720516 
L 360.441818 55569.720516 
L 360.441818 55569.720516 
L 359.173636 55569.720516 
z
" style="fill:#1f77b4;"/>
   </g>
   <g id="patch_229">
    <path clip-path="url(#pb135466e2d)" d="M 360.441818 55569.720516 
L 361.71 55569.720516 
L 361.71 55569.720516 
L 360.441818 55569.720516 
z
" style="fill:#1f77b4;"/>
   </g>
   <g id="patch_230">
    <path clip-path="url(#pb135466e2d)" d="M 361.71 55569.720516 
L 362.978182 55569.720516 
L 362.978182 55569.720516 
L 361.71 55569.720516 
z
" style="fill:#1f77b4;"/>
   </g>
   <g id="patch_231">
    <path clip-path="url(#pb135466e2d)" d="M 362.978182 55569.720516 
L 364.246364 55569.720516 
L 364.246364 55569.720516 
L 362.978182 55569.720516 
z
" style="fill:#1f77b4;"/>
   </g>
   <g id="patch_232">
    <path clip-path="url(#pb135466e2d)" d="M 364.246364 55569.720516 
L 365.514545 55569.720516 
L 365.514545 55569.720516 
L 364.246364 55569.720516 
z
" style="fill:#1f77b4;"/>
   </g>
   <g id="patch_233">
    <path clip-path="url(#pb135466e2d)" d="M 365.514545 55569.720516 
L 366.782727 55569.720516 
L 366.782727 55569.720516 
L 365.514545 55569.720516 
z
" style="fill:#1f77b4;"/>
   </g>
   <g id="patch_234">
    <path clip-path="url(#pb135466e2d)" d="M 366.782727 55569.720516 
L 368.050909 55569.720516 
L 368.050909 55569.720516 
L 366.782727 55569.720516 
z
" style="fill:#1f77b4;"/>
   </g>
   <g id="patch_235">
    <path clip-path="url(#pb135466e2d)" d="M 368.050909 55569.720516 
L 369.319091 55569.720516 
L 369.319091 55569.720516 
L 368.050909 55569.720516 
z
" style="fill:#1f77b4;"/>
   </g>
   <g id="patch_236">
    <path clip-path="url(#pb135466e2d)" d="M 369.319091 55569.720516 
L 370.587273 55569.720516 
L 370.587273 55569.720516 
L 369.319091 55569.720516 
z
" style="fill:#1f77b4;"/>
   </g>
   <g id="patch_237">
    <path clip-path="url(#pb135466e2d)" d="M 370.587273 55569.720516 
L 371.855455 55569.720516 
L 371.855455 55569.720516 
L 370.587273 55569.720516 
z
" style="fill:#1f77b4;"/>
   </g>
   <g id="patch_238">
    <path clip-path="url(#pb135466e2d)" d="M 371.855455 55569.720516 
L 373.123636 55569.720516 
L 373.123636 55569.720516 
L 371.855455 55569.720516 
z
" style="fill:#1f77b4;"/>
   </g>
   <g id="patch_239">
    <path clip-path="url(#pb135466e2d)" d="M 373.123636 55569.720516 
L 374.391818 55569.720516 
L 374.391818 55569.720516 
L 373.123636 55569.720516 
z
" style="fill:#1f77b4;"/>
   </g>
   <g id="patch_240">
    <path clip-path="url(#pb135466e2d)" d="M 374.391818 55569.720516 
L 375.66 55569.720516 
L 375.66 55569.720516 
L 374.391818 55569.720516 
z
" style="fill:#1f77b4;"/>
   </g>
   <g id="patch_241">
    <path clip-path="url(#pb135466e2d)" d="M 375.66 55569.720516 
L 376.928182 55569.720516 
L 376.928182 55569.720516 
L 375.66 55569.720516 
z
" style="fill:#1f77b4;"/>
   </g>
   <g id="patch_242">
    <path clip-path="url(#pb135466e2d)" d="M 376.928182 55569.720516 
L 378.196364 55569.720516 
L 378.196364 55569.720516 
L 376.928182 55569.720516 
z
" style="fill:#1f77b4;"/>
   </g>
   <g id="patch_243">
    <path clip-path="url(#pb135466e2d)" d="M 378.196364 55569.720516 
L 379.464545 55569.720516 
L 379.464545 295.488 
L 378.196364 295.488 
z
" style="fill:#1f77b4;"/>
   </g>
   <g id="patch_244">
    <path clip-path="url(#pb135466e2d)" d="M 379.464545 55569.720516 
L 380.732727 55569.720516 
L 380.732727 55569.720516 
L 379.464545 55569.720516 
z
" style="fill:#1f77b4;"/>
   </g>
   <g id="patch_245">
    <path clip-path="url(#pb135466e2d)" d="M 380.732727 55569.720516 
L 382.000909 55569.720516 
L 382.000909 55569.720516 
L 380.732727 55569.720516 
z
" style="fill:#1f77b4;"/>
   </g>
   <g id="patch_246">
    <path clip-path="url(#pb135466e2d)" d="M 382.000909 55569.720516 
L 383.269091 55569.720516 
L 383.269091 55569.720516 
L 382.000909 55569.720516 
z
" style="fill:#1f77b4;"/>
   </g>
   <g id="patch_247">
    <path clip-path="url(#pb135466e2d)" d="M 383.269091 55569.720516 
L 384.537273 55569.720516 
L 384.537273 55569.720516 
L 383.269091 55569.720516 
z
" style="fill:#1f77b4;"/>
   </g>
   <g id="patch_248">
    <path clip-path="url(#pb135466e2d)" d="M 384.537273 55569.720516 
L 385.805455 55569.720516 
L 385.805455 55569.720516 
L 384.537273 55569.720516 
z
" style="fill:#1f77b4;"/>
   </g>
   <g id="patch_249">
    <path clip-path="url(#pb135466e2d)" d="M 385.805455 55569.720516 
L 387.073636 55569.720516 
L 387.073636 55569.720516 
L 385.805455 55569.720516 
z
" style="fill:#1f77b4;"/>
   </g>
   <g id="patch_250">
    <path clip-path="url(#pb135466e2d)" d="M 387.073636 55569.720516 
L 388.341818 55569.720516 
L 388.341818 55569.720516 
L 387.073636 55569.720516 
z
" style="fill:#1f77b4;"/>
   </g>
   <g id="patch_251">
    <path clip-path="url(#pb135466e2d)" d="M 388.341818 55569.720516 
L 389.61 55569.720516 
L 389.61 55569.720516 
L 388.341818 55569.720516 
z
" style="fill:#1f77b4;"/>
   </g>
   <g id="patch_252">
    <path clip-path="url(#pb135466e2d)" d="M 389.61 55569.720516 
L 390.878182 55569.720516 
L 390.878182 55569.720516 
L 389.61 55569.720516 
z
" style="fill:#1f77b4;"/>
   </g>
   <g id="patch_253">
    <path clip-path="url(#pb135466e2d)" d="M 390.878182 55569.720516 
L 392.146364 55569.720516 
L 392.146364 55569.720516 
L 390.878182 55569.720516 
z
" style="fill:#1f77b4;"/>
   </g>
   <g id="patch_254">
    <path clip-path="url(#pb135466e2d)" d="M 392.146364 55569.720516 
L 393.414545 55569.720516 
L 393.414545 55569.720516 
L 392.146364 55569.720516 
z
" style="fill:#1f77b4;"/>
   </g>
   <g id="patch_255">
    <path clip-path="url(#pb135466e2d)" d="M 393.414545 55569.720516 
L 394.682727 55569.720516 
L 394.682727 55569.720516 
L 393.414545 55569.720516 
z
" style="fill:#1f77b4;"/>
   </g>
   <g id="patch_256">
    <path clip-path="url(#pb135466e2d)" d="M 394.682727 55569.720516 
L 395.950909 55569.720516 
L 395.950909 295.488 
L 394.682727 295.488 
z
" style="fill:#1f77b4;"/>
   </g>
   <g id="patch_257">
    <path clip-path="url(#pb135466e2d)" d="M 395.950909 55569.720516 
L 397.219091 55569.720516 
L 397.219091 295.488 
L 395.950909 295.488 
z
" style="fill:#1f77b4;"/>
   </g>
   <g id="patch_258">
    <path clip-path="url(#pb135466e2d)" d="M 397.219091 55569.720516 
L 398.487273 55569.720516 
L 398.487273 278.848798 
L 397.219091 278.848798 
z
" style="fill:#1f77b4;"/>
   </g>
   <g id="matplotlib.axis_1">
    <g id="xtick_1">
     <g id="line2d_1">
      <path clip-path="url(#pb135466e2d)" d="M 73.245649 307.584 
L 73.245649 41.472 
" style="fill:none;stroke:#b0b0b0;stroke-linecap:square;stroke-width:0.8;"/>
     </g>
     <g id="line2d_2">
      <defs>
       <path d="M 0 0 
L 0 3.5 
" id="m6786ce55d3" style="stroke:#000000;stroke-width:0.8;"/>
      </defs>
      <g>
       <use style="stroke:#000000;stroke-width:0.8;" x="73.245649" xlink:href="#m6786ce55d3" y="307.584"/>
      </g>
     </g>
     <g id="text_1">
      <!-- 0 -->
      <defs>
       <path d="M 31.78125 66.40625 
Q 24.171875 66.40625 20.328125 58.90625 
Q 16.5 51.421875 16.5 36.375 
Q 16.5 21.390625 20.328125 13.890625 
Q 24.171875 6.390625 31.78125 6.390625 
Q 39.453125 6.390625 43.28125 13.890625 
Q 47.125 21.390625 47.125 36.375 
Q 47.125 51.421875 43.28125 58.90625 
Q 39.453125 66.40625 31.78125 66.40625 
z
M 31.78125 74.21875 
Q 44.046875 74.21875 50.515625 64.515625 
Q 56.984375 54.828125 56.984375 36.375 
Q 56.984375 17.96875 50.515625 8.265625 
Q 44.046875 -1.421875 31.78125 -1.421875 
Q 19.53125 -1.421875 13.0625 8.265625 
Q 6.59375 17.96875 6.59375 36.375 
Q 6.59375 54.828125 13.0625 64.515625 
Q 19.53125 74.21875 31.78125 74.21875 
z
" id="DejaVuSans-48"/>
      </defs>
      <g transform="translate(70.064399 322.182437)scale(0.1 -0.1)">
       <use xlink:href="#DejaVuSans-48"/>
      </g>
     </g>
    </g>
    <g id="xtick_2">
     <g id="line2d_3">
      <path clip-path="url(#pb135466e2d)" d="M 131.953523 307.584 
L 131.953523 41.472 
" style="fill:none;stroke:#b0b0b0;stroke-linecap:square;stroke-width:0.8;"/>
     </g>
     <g id="line2d_4">
      <g>
       <use style="stroke:#000000;stroke-width:0.8;" x="131.953523" xlink:href="#m6786ce55d3" y="307.584"/>
      </g>
     </g>
     <g id="text_2">
      <!-- 100 -->
      <defs>
       <path d="M 12.40625 8.296875 
L 28.515625 8.296875 
L 28.515625 63.921875 
L 10.984375 60.40625 
L 10.984375 69.390625 
L 28.421875 72.90625 
L 38.28125 72.90625 
L 38.28125 8.296875 
L 54.390625 8.296875 
L 54.390625 0 
L 12.40625 0 
z
" id="DejaVuSans-49"/>
      </defs>
      <g transform="translate(122.409773 322.182437)scale(0.1 -0.1)">
       <use xlink:href="#DejaVuSans-49"/>
       <use x="63.623047" xlink:href="#DejaVuSans-48"/>
       <use x="127.246094" xlink:href="#DejaVuSans-48"/>
      </g>
     </g>
    </g>
    <g id="xtick_3">
     <g id="line2d_5">
      <path clip-path="url(#pb135466e2d)" d="M 190.661397 307.584 
L 190.661397 41.472 
" style="fill:none;stroke:#b0b0b0;stroke-linecap:square;stroke-width:0.8;"/>
     </g>
     <g id="line2d_6">
      <g>
       <use style="stroke:#000000;stroke-width:0.8;" x="190.661397" xlink:href="#m6786ce55d3" y="307.584"/>
      </g>
     </g>
     <g id="text_3">
      <!-- 200 -->
      <defs>
       <path d="M 19.1875 8.296875 
L 53.609375 8.296875 
L 53.609375 0 
L 7.328125 0 
L 7.328125 8.296875 
Q 12.9375 14.109375 22.625 23.890625 
Q 32.328125 33.6875 34.8125 36.53125 
Q 39.546875 41.84375 41.421875 45.53125 
Q 43.3125 49.21875 43.3125 52.78125 
Q 43.3125 58.59375 39.234375 62.25 
Q 35.15625 65.921875 28.609375 65.921875 
Q 23.96875 65.921875 18.8125 64.3125 
Q 13.671875 62.703125 7.8125 59.421875 
L 7.8125 69.390625 
Q 13.765625 71.78125 18.9375 73 
Q 24.125 74.21875 28.421875 74.21875 
Q 39.75 74.21875 46.484375 68.546875 
Q 53.21875 62.890625 53.21875 53.421875 
Q 53.21875 48.921875 51.53125 44.890625 
Q 49.859375 40.875 45.40625 35.40625 
Q 44.1875 33.984375 37.640625 27.21875 
Q 31.109375 20.453125 19.1875 8.296875 
z
" id="DejaVuSans-50"/>
      </defs>
      <g transform="translate(181.117647 322.182437)scale(0.1 -0.1)">
       <use xlink:href="#DejaVuSans-50"/>
       <use x="63.623047" xlink:href="#DejaVuSans-48"/>
       <use x="127.246094" xlink:href="#DejaVuSans-48"/>
      </g>
     </g>
    </g>
    <g id="xtick_4">
     <g id="line2d_7">
      <path clip-path="url(#pb135466e2d)" d="M 249.369272 307.584 
L 249.369272 41.472 
" style="fill:none;stroke:#b0b0b0;stroke-linecap:square;stroke-width:0.8;"/>
     </g>
     <g id="line2d_8">
      <g>
       <use style="stroke:#000000;stroke-width:0.8;" x="249.369272" xlink:href="#m6786ce55d3" y="307.584"/>
      </g>
     </g>
     <g id="text_4">
      <!-- 300 -->
      <defs>
       <path d="M 40.578125 39.3125 
Q 47.65625 37.796875 51.625 33 
Q 55.609375 28.21875 55.609375 21.1875 
Q 55.609375 10.40625 48.1875 4.484375 
Q 40.765625 -1.421875 27.09375 -1.421875 
Q 22.515625 -1.421875 17.65625 -0.515625 
Q 12.796875 0.390625 7.625 2.203125 
L 7.625 11.71875 
Q 11.71875 9.328125 16.59375 8.109375 
Q 21.484375 6.890625 26.8125 6.890625 
Q 36.078125 6.890625 40.9375 10.546875 
Q 45.796875 14.203125 45.796875 21.1875 
Q 45.796875 27.640625 41.28125 31.265625 
Q 36.765625 34.90625 28.71875 34.90625 
L 20.21875 34.90625 
L 20.21875 43.015625 
L 29.109375 43.015625 
Q 36.375 43.015625 40.234375 45.921875 
Q 44.09375 48.828125 44.09375 54.296875 
Q 44.09375 59.90625 40.109375 62.90625 
Q 36.140625 65.921875 28.71875 65.921875 
Q 24.65625 65.921875 20.015625 65.03125 
Q 15.375 64.15625 9.8125 62.3125 
L 9.8125 71.09375 
Q 15.4375 72.65625 20.34375 73.4375 
Q 25.25 74.21875 29.59375 74.21875 
Q 40.828125 74.21875 47.359375 69.109375 
Q 53.90625 64.015625 53.90625 55.328125 
Q 53.90625 49.265625 50.4375 45.09375 
Q 46.96875 40.921875 40.578125 39.3125 
z
" id="DejaVuSans-51"/>
      </defs>
      <g transform="translate(239.825522 322.182437)scale(0.1 -0.1)">
       <use xlink:href="#DejaVuSans-51"/>
       <use x="63.623047" xlink:href="#DejaVuSans-48"/>
       <use x="127.246094" xlink:href="#DejaVuSans-48"/>
      </g>
     </g>
    </g>
    <g id="xtick_5">
     <g id="line2d_9">
      <path clip-path="url(#pb135466e2d)" d="M 308.077146 307.584 
L 308.077146 41.472 
" style="fill:none;stroke:#b0b0b0;stroke-linecap:square;stroke-width:0.8;"/>
     </g>
     <g id="line2d_10">
      <g>
       <use style="stroke:#000000;stroke-width:0.8;" x="308.077146" xlink:href="#m6786ce55d3" y="307.584"/>
      </g>
     </g>
     <g id="text_5">
      <!-- 400 -->
      <defs>
       <path d="M 37.796875 64.3125 
L 12.890625 25.390625 
L 37.796875 25.390625 
z
M 35.203125 72.90625 
L 47.609375 72.90625 
L 47.609375 25.390625 
L 58.015625 25.390625 
L 58.015625 17.1875 
L 47.609375 17.1875 
L 47.609375 0 
L 37.796875 0 
L 37.796875 17.1875 
L 4.890625 17.1875 
L 4.890625 26.703125 
z
" id="DejaVuSans-52"/>
      </defs>
      <g transform="translate(298.533396 322.182437)scale(0.1 -0.1)">
       <use xlink:href="#DejaVuSans-52"/>
       <use x="63.623047" xlink:href="#DejaVuSans-48"/>
       <use x="127.246094" xlink:href="#DejaVuSans-48"/>
      </g>
     </g>
    </g>
    <g id="xtick_6">
     <g id="line2d_11">
      <path clip-path="url(#pb135466e2d)" d="M 366.785021 307.584 
L 366.785021 41.472 
" style="fill:none;stroke:#b0b0b0;stroke-linecap:square;stroke-width:0.8;"/>
     </g>
     <g id="line2d_12">
      <g>
       <use style="stroke:#000000;stroke-width:0.8;" x="366.785021" xlink:href="#m6786ce55d3" y="307.584"/>
      </g>
     </g>
     <g id="text_6">
      <!-- 500 -->
      <defs>
       <path d="M 10.796875 72.90625 
L 49.515625 72.90625 
L 49.515625 64.59375 
L 19.828125 64.59375 
L 19.828125 46.734375 
Q 21.96875 47.46875 24.109375 47.828125 
Q 26.265625 48.1875 28.421875 48.1875 
Q 40.625 48.1875 47.75 41.5 
Q 54.890625 34.8125 54.890625 23.390625 
Q 54.890625 11.625 47.5625 5.09375 
Q 40.234375 -1.421875 26.90625 -1.421875 
Q 22.3125 -1.421875 17.546875 -0.640625 
Q 12.796875 0.140625 7.71875 1.703125 
L 7.71875 11.625 
Q 12.109375 9.234375 16.796875 8.0625 
Q 21.484375 6.890625 26.703125 6.890625 
Q 35.15625 6.890625 40.078125 11.328125 
Q 45.015625 15.765625 45.015625 23.390625 
Q 45.015625 31 40.078125 35.4375 
Q 35.15625 39.890625 26.703125 39.890625 
Q 22.75 39.890625 18.8125 39.015625 
Q 14.890625 38.140625 10.796875 36.28125 
z
" id="DejaVuSans-53"/>
      </defs>
      <g transform="translate(357.241271 322.182437)scale(0.1 -0.1)">
       <use xlink:href="#DejaVuSans-53"/>
       <use x="63.623047" xlink:href="#DejaVuSans-48"/>
       <use x="127.246094" xlink:href="#DejaVuSans-48"/>
      </g>
     </g>
    </g>
   </g>
   <g id="matplotlib.axis_2">
    <g id="ytick_1">
     <g id="line2d_13">
      <path clip-path="url(#pb135466e2d)" d="M 57.6 295.488 
L 414.72 295.488 
" style="fill:none;stroke:#b0b0b0;stroke-linecap:square;stroke-width:0.8;"/>
     </g>
     <g id="line2d_14">
      <defs>
       <path d="M 0 0 
L -3.5 0 
" id="m6ad9ce7035" style="stroke:#000000;stroke-width:0.8;"/>
      </defs>
      <g>
       <use style="stroke:#000000;stroke-width:0.8;" x="57.6" xlink:href="#m6ad9ce7035" y="295.488"/>
      </g>
     </g>
     <g id="text_7">
      <!-- $\mathdefault{10^{0}}$ -->
      <g transform="translate(33 299.287219)scale(0.1 -0.1)">
       <use transform="translate(0 0.765625)" xlink:href="#DejaVuSans-49"/>
       <use transform="translate(63.623047 0.765625)" xlink:href="#DejaVuSans-48"/>
       <use transform="translate(128.203125 39.046875)scale(0.7)" xlink:href="#DejaVuSans-48"/>
      </g>
     </g>
    </g>
    <g id="ytick_2">
     <g id="line2d_15">
      <path clip-path="url(#pb135466e2d)" d="M 57.6 240.213767 
L 414.72 240.213767 
" style="fill:none;stroke:#b0b0b0;stroke-linecap:square;stroke-width:0.8;"/>
     </g>
     <g id="line2d_16">
      <g>
       <use style="stroke:#000000;stroke-width:0.8;" x="57.6" xlink:href="#m6ad9ce7035" y="240.213767"/>
      </g>
     </g>
     <g id="text_8">
      <!-- $\mathdefault{10^{1}}$ -->
      <g transform="translate(33 244.012986)scale(0.1 -0.1)">
       <use transform="translate(0 0.684375)" xlink:href="#DejaVuSans-49"/>
       <use transform="translate(63.623047 0.684375)" xlink:href="#DejaVuSans-48"/>
       <use transform="translate(128.203125 38.965625)scale(0.7)" xlink:href="#DejaVuSans-49"/>
      </g>
     </g>
    </g>
    <g id="ytick_3">
     <g id="line2d_17">
      <path clip-path="url(#pb135466e2d)" d="M 57.6 184.939535 
L 414.72 184.939535 
" style="fill:none;stroke:#b0b0b0;stroke-linecap:square;stroke-width:0.8;"/>
     </g>
     <g id="line2d_18">
      <g>
       <use style="stroke:#000000;stroke-width:0.8;" x="57.6" xlink:href="#m6ad9ce7035" y="184.939535"/>
      </g>
     </g>
     <g id="text_9">
      <!-- $\mathdefault{10^{2}}$ -->
      <g transform="translate(33 188.738754)scale(0.1 -0.1)">
       <use transform="translate(0 0.765625)" xlink:href="#DejaVuSans-49"/>
       <use transform="translate(63.623047 0.765625)" xlink:href="#DejaVuSans-48"/>
       <use transform="translate(128.203125 39.046875)scale(0.7)" xlink:href="#DejaVuSans-50"/>
      </g>
     </g>
    </g>
    <g id="ytick_4">
     <g id="line2d_19">
      <path clip-path="url(#pb135466e2d)" d="M 57.6 129.665302 
L 414.72 129.665302 
" style="fill:none;stroke:#b0b0b0;stroke-linecap:square;stroke-width:0.8;"/>
     </g>
     <g id="line2d_20">
      <g>
       <use style="stroke:#000000;stroke-width:0.8;" x="57.6" xlink:href="#m6ad9ce7035" y="129.665302"/>
      </g>
     </g>
     <g id="text_10">
      <!-- $\mathdefault{10^{3}}$ -->
      <g transform="translate(33 133.464521)scale(0.1 -0.1)">
       <use transform="translate(0 0.765625)" xlink:href="#DejaVuSans-49"/>
       <use transform="translate(63.623047 0.765625)" xlink:href="#DejaVuSans-48"/>
       <use transform="translate(128.203125 39.046875)scale(0.7)" xlink:href="#DejaVuSans-51"/>
      </g>
     </g>
    </g>
    <g id="ytick_5">
     <g id="line2d_21">
      <path clip-path="url(#pb135466e2d)" d="M 57.6 74.39107 
L 414.72 74.39107 
" style="fill:none;stroke:#b0b0b0;stroke-linecap:square;stroke-width:0.8;"/>
     </g>
     <g id="line2d_22">
      <g>
       <use style="stroke:#000000;stroke-width:0.8;" x="57.6" xlink:href="#m6ad9ce7035" y="74.39107"/>
      </g>
     </g>
     <g id="text_11">
      <!-- $\mathdefault{10^{4}}$ -->
      <g transform="translate(33 78.190289)scale(0.1 -0.1)">
       <use transform="translate(0 0.684375)" xlink:href="#DejaVuSans-49"/>
       <use transform="translate(63.623047 0.684375)" xlink:href="#DejaVuSans-48"/>
       <use transform="translate(128.203125 38.965625)scale(0.7)" xlink:href="#DejaVuSans-52"/>
      </g>
     </g>
    </g>
    <g id="ytick_6">
     <g id="line2d_23">
      <defs>
       <path d="M 0 0 
L -2 0 
" id="m8136eed0a4" style="stroke:#000000;stroke-width:0.6;"/>
      </defs>
      <g>
       <use style="stroke:#000000;stroke-width:0.6;" x="57.6" xlink:href="#m8136eed0a4" y="304.050087"/>
      </g>
     </g>
    </g>
    <g id="ytick_7">
     <g id="line2d_24">
      <g>
       <use style="stroke:#000000;stroke-width:0.6;" x="57.6" xlink:href="#m8136eed0a4" y="300.844627"/>
      </g>
     </g>
    </g>
    <g id="ytick_8">
     <g id="line2d_25">
      <g>
       <use style="stroke:#000000;stroke-width:0.6;" x="57.6" xlink:href="#m8136eed0a4" y="298.01721"/>
      </g>
     </g>
    </g>
    <g id="ytick_9">
     <g id="line2d_26">
      <g>
       <use style="stroke:#000000;stroke-width:0.6;" x="57.6" xlink:href="#m8136eed0a4" y="278.848798"/>
      </g>
     </g>
    </g>
    <g id="ytick_10">
     <g id="line2d_27">
      <g>
       <use style="stroke:#000000;stroke-width:0.6;" x="57.6" xlink:href="#m8136eed0a4" y="269.115489"/>
      </g>
     </g>
    </g>
    <g id="ytick_11">
     <g id="line2d_28">
      <g>
       <use style="stroke:#000000;stroke-width:0.6;" x="57.6" xlink:href="#m8136eed0a4" y="262.209596"/>
      </g>
     </g>
    </g>
    <g id="ytick_12">
     <g id="line2d_29">
      <g>
       <use style="stroke:#000000;stroke-width:0.6;" x="57.6" xlink:href="#m8136eed0a4" y="256.852969"/>
      </g>
     </g>
    </g>
    <g id="ytick_13">
     <g id="line2d_30">
      <g>
       <use style="stroke:#000000;stroke-width:0.6;" x="57.6" xlink:href="#m8136eed0a4" y="252.476287"/>
      </g>
     </g>
    </g>
    <g id="ytick_14">
     <g id="line2d_31">
      <g>
       <use style="stroke:#000000;stroke-width:0.6;" x="57.6" xlink:href="#m8136eed0a4" y="248.775854"/>
      </g>
     </g>
    </g>
    <g id="ytick_15">
     <g id="line2d_32">
      <g>
       <use style="stroke:#000000;stroke-width:0.6;" x="57.6" xlink:href="#m8136eed0a4" y="245.570394"/>
      </g>
     </g>
    </g>
    <g id="ytick_16">
     <g id="line2d_33">
      <g>
       <use style="stroke:#000000;stroke-width:0.6;" x="57.6" xlink:href="#m8136eed0a4" y="242.742978"/>
      </g>
     </g>
    </g>
    <g id="ytick_17">
     <g id="line2d_34">
      <g>
       <use style="stroke:#000000;stroke-width:0.6;" x="57.6" xlink:href="#m8136eed0a4" y="223.574566"/>
      </g>
     </g>
    </g>
    <g id="ytick_18">
     <g id="line2d_35">
      <g>
       <use style="stroke:#000000;stroke-width:0.6;" x="57.6" xlink:href="#m8136eed0a4" y="213.841256"/>
      </g>
     </g>
    </g>
    <g id="ytick_19">
     <g id="line2d_36">
      <g>
       <use style="stroke:#000000;stroke-width:0.6;" x="57.6" xlink:href="#m8136eed0a4" y="206.935364"/>
      </g>
     </g>
    </g>
    <g id="ytick_20">
     <g id="line2d_37">
      <g>
       <use style="stroke:#000000;stroke-width:0.6;" x="57.6" xlink:href="#m8136eed0a4" y="201.578737"/>
      </g>
     </g>
    </g>
    <g id="ytick_21">
     <g id="line2d_38">
      <g>
       <use style="stroke:#000000;stroke-width:0.6;" x="57.6" xlink:href="#m8136eed0a4" y="197.202054"/>
      </g>
     </g>
    </g>
    <g id="ytick_22">
     <g id="line2d_39">
      <g>
       <use style="stroke:#000000;stroke-width:0.6;" x="57.6" xlink:href="#m8136eed0a4" y="193.501622"/>
      </g>
     </g>
    </g>
    <g id="ytick_23">
     <g id="line2d_40">
      <g>
       <use style="stroke:#000000;stroke-width:0.6;" x="57.6" xlink:href="#m8136eed0a4" y="190.296162"/>
      </g>
     </g>
    </g>
    <g id="ytick_24">
     <g id="line2d_41">
      <g>
       <use style="stroke:#000000;stroke-width:0.6;" x="57.6" xlink:href="#m8136eed0a4" y="187.468745"/>
      </g>
     </g>
    </g>
    <g id="ytick_25">
     <g id="line2d_42">
      <g>
       <use style="stroke:#000000;stroke-width:0.6;" x="57.6" xlink:href="#m8136eed0a4" y="168.300333"/>
      </g>
     </g>
    </g>
    <g id="ytick_26">
     <g id="line2d_43">
      <g>
       <use style="stroke:#000000;stroke-width:0.6;" x="57.6" xlink:href="#m8136eed0a4" y="158.567024"/>
      </g>
     </g>
    </g>
    <g id="ytick_27">
     <g id="line2d_44">
      <g>
       <use style="stroke:#000000;stroke-width:0.6;" x="57.6" xlink:href="#m8136eed0a4" y="151.661131"/>
      </g>
     </g>
    </g>
    <g id="ytick_28">
     <g id="line2d_45">
      <g>
       <use style="stroke:#000000;stroke-width:0.6;" x="57.6" xlink:href="#m8136eed0a4" y="146.304504"/>
      </g>
     </g>
    </g>
    <g id="ytick_29">
     <g id="line2d_46">
      <g>
       <use style="stroke:#000000;stroke-width:0.6;" x="57.6" xlink:href="#m8136eed0a4" y="141.927822"/>
      </g>
     </g>
    </g>
    <g id="ytick_30">
     <g id="line2d_47">
      <g>
       <use style="stroke:#000000;stroke-width:0.6;" x="57.6" xlink:href="#m8136eed0a4" y="138.227389"/>
      </g>
     </g>
    </g>
    <g id="ytick_31">
     <g id="line2d_48">
      <g>
       <use style="stroke:#000000;stroke-width:0.6;" x="57.6" xlink:href="#m8136eed0a4" y="135.021929"/>
      </g>
     </g>
    </g>
    <g id="ytick_32">
     <g id="line2d_49">
      <g>
       <use style="stroke:#000000;stroke-width:0.6;" x="57.6" xlink:href="#m8136eed0a4" y="132.194513"/>
      </g>
     </g>
    </g>
    <g id="ytick_33">
     <g id="line2d_50">
      <g>
       <use style="stroke:#000000;stroke-width:0.6;" x="57.6" xlink:href="#m8136eed0a4" y="113.0261"/>
      </g>
     </g>
    </g>
    <g id="ytick_34">
     <g id="line2d_51">
      <g>
       <use style="stroke:#000000;stroke-width:0.6;" x="57.6" xlink:href="#m8136eed0a4" y="103.292791"/>
      </g>
     </g>
    </g>
    <g id="ytick_35">
     <g id="line2d_52">
      <g>
       <use style="stroke:#000000;stroke-width:0.6;" x="57.6" xlink:href="#m8136eed0a4" y="96.386899"/>
      </g>
     </g>
    </g>
    <g id="ytick_36">
     <g id="line2d_53">
      <g>
       <use style="stroke:#000000;stroke-width:0.6;" x="57.6" xlink:href="#m8136eed0a4" y="91.030272"/>
      </g>
     </g>
    </g>
    <g id="ytick_37">
     <g id="line2d_54">
      <g>
       <use style="stroke:#000000;stroke-width:0.6;" x="57.6" xlink:href="#m8136eed0a4" y="86.653589"/>
      </g>
     </g>
    </g>
    <g id="ytick_38">
     <g id="line2d_55">
      <g>
       <use style="stroke:#000000;stroke-width:0.6;" x="57.6" xlink:href="#m8136eed0a4" y="82.953157"/>
      </g>
     </g>
    </g>
    <g id="ytick_39">
     <g id="line2d_56">
      <g>
       <use style="stroke:#000000;stroke-width:0.6;" x="57.6" xlink:href="#m8136eed0a4" y="79.747697"/>
      </g>
     </g>
    </g>
    <g id="ytick_40">
     <g id="line2d_57">
      <g>
       <use style="stroke:#000000;stroke-width:0.6;" x="57.6" xlink:href="#m8136eed0a4" y="76.92028"/>
      </g>
     </g>
    </g>
    <g id="ytick_41">
     <g id="line2d_58">
      <g>
       <use style="stroke:#000000;stroke-width:0.6;" x="57.6" xlink:href="#m8136eed0a4" y="57.751868"/>
      </g>
     </g>
    </g>
    <g id="ytick_42">
     <g id="line2d_59">
      <g>
       <use style="stroke:#000000;stroke-width:0.6;" x="57.6" xlink:href="#m8136eed0a4" y="48.018559"/>
      </g>
     </g>
    </g>
   </g>
   <g id="patch_259">
    <path d="M 57.6 307.584 
L 57.6 41.472 
" style="fill:none;stroke:#000000;stroke-linecap:square;stroke-linejoin:miter;stroke-width:0.8;"/>
   </g>
   <g id="patch_260">
    <path d="M 414.72 307.584 
L 414.72 41.472 
" style="fill:none;stroke:#000000;stroke-linecap:square;stroke-linejoin:miter;stroke-width:0.8;"/>
   </g>
   <g id="patch_261">
    <path d="M 57.6 307.584 
L 414.72 307.584 
" style="fill:none;stroke:#000000;stroke-linecap:square;stroke-linejoin:miter;stroke-width:0.8;"/>
   </g>
   <g id="patch_262">
    <path d="M 57.6 41.472 
L 414.72 41.472 
" style="fill:none;stroke:#000000;stroke-linecap:square;stroke-linejoin:miter;stroke-width:0.8;"/>
   </g>
  </g>
 </g>
 <defs>
  <clipPath id="pb135466e2d">
   <rect height="266.112" width="357.12" x="57.6" y="41.472"/>
  </clipPath>
 </defs>
</svg>
